<?xml version="1.0" encoding="UTF-8" standalone="no"?>
<!-- Created with Inkscape (http://www.inkscape.org/) -->

<svg
   width="1000"
   height="1000"
   viewBox="0 0 1000 1000"
   version="1.1"
   id="svg1"
   inkscape:version="1.3.2 (091e20e, 2023-11-25, custom)"
   sodipodi:docname="new - 복사본.svg"
   xml:space="preserve"
   xmlns:inkscape="http://www.inkscape.org/namespaces/inkscape"
   xmlns:sodipodi="http://sodipodi.sourceforge.net/DTD/sodipodi-0.dtd"
   xmlns="http://www.w3.org/2000/svg"
   xmlns:svg="http://www.w3.org/2000/svg"><sodipodi:namedview
     id="namedview1"
     pagecolor="#ffffff"
     bordercolor="#000000"
     borderopacity="0.25"
     inkscape:showpageshadow="2"
     inkscape:pageopacity="0.0"
     inkscape:pagecheckerboard="0"
     inkscape:deskcolor="#d1d1d1"
     inkscape:document-units="px"
     inkscape:zoom="0.40489267"
     inkscape:cx="4319.6633"
     inkscape:cy="6457.2669"
     inkscape:window-width="1920"
     inkscape:window-height="1129"
     inkscape:window-x="-8"
     inkscape:window-y="-8"
     inkscape:window-maximized="1"
     inkscape:current-layer="layer1" /><defs
     id="defs1" /><g
     inkscape:label="Layer 1"
     inkscape:groupmode="layer"
     id="layer1"><path
       id="path2"
       style="fill:#d62969;fill-opacity:0.498039;stroke:#738823;stroke-width:2.95181"
       d="M 29.541016 1845.5293 L -3.2890625 1838.8496 L -3.7050781 1944.959 L 91.382812 1944.959 L 29.541016 1845.5293 z " /><path
       id="path21"
       style="fill:#d62969;fill-opacity:0.498039;stroke:#738823;stroke-width:2.95181"
       d="M -2.5273438 1644.5625 L -3.2890625 1838.8496 L 29.541016 1845.5293 L 28.402344 1843.6992 L 27.171875 1646.7031 L -2.5273438 1644.5625 z " /><path
       id="path20"
       style="fill:#d62969;fill-opacity:0.498039;stroke:#738823;stroke-width:2.95181"
       d="M -1.7734375 1452.4004 L -2.5273438 1644.5625 L 27.171875 1646.7031 L 27.167969 1646.1152 L 62.980469 1546.0879 L 58.175781 1477.6094 L -1.7734375 1452.4004 z " /><path
       id="path19"
       style="fill:#d62969;fill-opacity:0.498039;stroke:#738823;stroke-width:2.95181"
       d="M -0.8515625 1217.3086 L -1.7734375 1452.4004 L 58.175781 1477.6094 L 58.041016 1475.6992 L 159.26172 1291.7734 L -0.8515625 1217.3086 z " /><path
       id="path18"
       style="fill:#d62969;fill-opacity:0.498039;stroke:#738823;stroke-width:2.95181"
       d="M 112.375 994.08984 L 0 1000.2656 L -0.8515625 1217.3086 L 159.26172 1291.7734 L 159.30078 1291.7012 L 255.62305 1249.7148 L 307.48828 1184.2637 L 277.85156 1099.0566 L 224.75 1076.8281 L 171.65039 1002.7344 L 112.375 994.08984 z " /><path
       id="path15"
       style="fill:#d62969;fill-opacity:0.498039;stroke:#738823;stroke-width:2.95181"
       d="M -2.4707031 613.74219 L -2.2832031 671.13281 L 39.240234 659.55273 L 38.28125 659.43359 L -2.4707031 613.74219 z " /><path
       id="path1"
       style="fill:#d62969;fill-opacity:0.498039;stroke:#738823;stroke-width:2.95181"
       d="M 58.052734 881.73828 L -1.5058594 907.84766 L -1.234375 990.38672 L 107.43555 985.44727 L 58.052734 881.73828 z " /><path
       id="path17"
       style="fill:#d62969;fill-opacity:0.498039;stroke:#738823;stroke-width:2.95181"
       d="M -1.7148438 844.23828 L -1.5058594 907.84766 L 58.052734 881.73828 L 58.041016 881.71484 L 66.652344 846.0332 L -1.7148438 844.23828 z " /><path
       id="path16"
       style="fill:#d62969;fill-opacity:0.498039;stroke:#738823;stroke-width:2.95181"
       d="M 39.240234 659.55273 L -2.2832031 671.13281 L -1.7148438 844.23828 L 66.652344 846.0332 L 66.683594 845.90234 L 106.20117 782.92383 L 104.9668 692.77539 L 67.919922 663.13867 L 39.240234 659.55273 z " /><path
       id="path3"
       style="fill:#d62969;fill-opacity:0.498039;stroke:#738823;stroke-width:2.95181"
       d="M 1120.1992 2527.9766 L 628.5332 2746.3965 L 628.5625 2746.4062 L 994.08984 3123.0488 L 1159.5664 3150.2168 L 1276.8809 2981.0371 L 1234.8945 2641.4414 L 1120.1992 2527.9766 z " /><path
       id="path45"
       style="fill:#d62969;fill-opacity:0.498039;stroke:#738823;stroke-width:2.95181"
       d="M 456.95898 2687.6016 L 504.37891 2160.9824 L 503.83789 2161.0664 L 302.54883 2116.6094 L 302.5293 2116.5859 L 89.449219 2561.6621 L 456.95898 2687.6016 z " /><path
       id="path46"
       style="fill:#d62969;fill-opacity:0.498039;stroke:#738823;stroke-width:2.95181"
       d="M 878.15039 2228.9316 L 474.94141 2487.8965 L 456.95898 2687.6016 L 628.5332 2746.3965 L 1120.1992 2527.9766 L 1120.0508 2527.8301 L 1075.5938 2379.6426 L 931.11133 2207.9922 L 878.15039 2228.9316 z " /><path
       id="path47"
       style="fill:#d62969;fill-opacity:0.498039;stroke:#738823;stroke-width:2.95181"
       d="M 812.00781 2197.207 L 494.75977 2267.8066 L 474.94141 2487.8965 L 878.15039 2228.9316 L 878.00977 2228.9863 L 812.00781 2197.207 z " /><path
       id="path48"
       style="fill:#d62969;fill-opacity:0.498039;stroke:#738823;stroke-width:2.95181"
       d="M 633.99805 2236.8203 L 584.00781 2148.7324 L 504.37891 2160.9824 L 494.75977 2267.8066 L 633.99805 2236.8203 z " /><path
       id="path49"
       style="fill:#d62969;fill-opacity:0.498039;stroke:#738823;stroke-width:2.95181"
       d="M 706.10938 2140.8086 L 692.35352 2223.834 L 812.00781 2197.207 L 811.32617 2196.8789 L 764.40039 2091.9121 L 706.35938 2141.3086 L 706.10938 2140.8086 z " /><path
       id="path50"
       style="fill:#d62969;fill-opacity:0.498039;stroke:#738823;stroke-width:2.95181"
       d="M 661.9043 2052.3965 L 628.5625 2058.5703 L 584.10547 2148.7168 L 584.00781 2148.7324 L 633.99805 2236.8203 L 692.35352 2223.834 L 706.10938 2140.8086 L 661.9043 2052.3965 z " /><path
       id="path44"
       style="fill:#d62969;fill-opacity:0.498039;stroke:#738823;stroke-width:2.95181"
       d="M -7.4101562 1956.0742 L 12.349609 2535.2402 L 89.449219 2561.6621 L 302.5293 2116.5859 L 197.58398 1985.7109 L 116.08008 1958.543 L -7.4101562 1956.0742 z " /><path
       id="path4"
       style="fill:#d62969;fill-opacity:0.498039;stroke:#738823;stroke-width:2.95181"
       d="M 365.75586 893.81445 L 358.01367 870.58398 L 312.60742 873.20312 L 308.24023 923.84766 L 317.55078 937.54883 L 365.75586 893.81445 z " /><path
       id="path26"
       style="fill:#d62969;fill-opacity:0.498039;stroke:#738823;stroke-width:2.95181"
       d="M 365.75586 893.81445 L 317.55078 937.54883 L 369.36523 1013.7891 L 459.30469 1102.8555 L 550.11719 1100.2363 L 572.82031 1050.4629 L 573.39453 1050.1484 L 466.87695 895.90039 L 365.87109 894.16016 L 365.75586 893.81445 z " /><path
       id="path25"
       style="fill:#d62969;fill-opacity:0.498039;stroke:#738823;stroke-width:2.95181"
       d="M 592.14258 798.24609 L 468.17578 841.7832 L 467.16406 895.90625 L 466.87695 895.90039 L 573.39453 1050.1484 L 676.73242 993.70508 L 697.68945 845.25977 L 672.36523 804.21875 L 592.14258 798.24609 z " /><path
       id="path24"
       style="fill:#d62969;fill-opacity:0.498039;stroke:#738823;stroke-width:2.95181"
       d="M 575.8418 729.28906 L 468.86133 802.43164 L 468.91016 802.47266 L 468.17578 841.7832 L 592.14258 798.24609 L 590.28516 798.10742 L 575.8418 729.28906 z " /><path
       id="path23"
       style="fill:#d62969;fill-opacity:0.498039;stroke:#738823;stroke-width:2.95181"
       d="M 530.06055 676.11719 L 397.54883 743.29688 L 468.86133 802.43164 L 575.8418 729.28906 L 575.44141 727.37695 L 530.06055 676.11719 z " /><path
       id="path22"
       style="fill:#d62969;fill-opacity:0.498039;stroke:#738823;stroke-width:2.95181"
       d="M 426.12305 580.67969 L 318.71875 650.53516 L 344.91602 743.0957 L 397.30664 743.0957 L 397.54883 743.29688 L 530.06055 676.11719 L 528.28711 674.11328 L 510.82422 629.58008 L 426.12305 580.67969 z " /><path
       id="path5"
       style="fill:#d62969;fill-opacity:0.498039;stroke:#738823;stroke-width:2.95181"
       d="M 747.18555 884.73828 L 894.32227 825.67969 L 871.45703 813.82422 L 752.70117 827.79688 L 747.46094 883.68164 L 747.18555 884.73828 z " /><path
       id="path33"
       style="fill:#d62969;fill-opacity:0.498039;stroke:#738823;stroke-width:2.95181"
       d="M 929.55273 1024.2988 L 970.76562 814.86133 L 895.0332 826.04883 L 894.32227 825.67969 L 747.18555 884.73828 L 730.87109 947.42578 L 766.67188 1007.6758 L 890.66602 1041.7305 L 928.21484 1024.2676 L 929.55273 1024.2988 z " /><path
       id="path34"
       style="fill:#d62969;fill-opacity:0.498039;stroke:#738823;stroke-width:2.95181"
       d="M 1189.3438 1092.1348 L 1134.6582 1109.1387 L 1135.1641 1109.8398 L 1130.7969 1157.8672 L 1140.4023 1197.1602 L 1156.9941 1196.2871 L 1167.4727 1149.1348 L 1189.3438 1092.1348 z " /><path
       id="path35"
       style="fill:#d62969;fill-opacity:0.498039;stroke:#738823;stroke-width:2.95181"
       d="M 1197.0176 1073.8594 L 1081.7871 701.24023 L 1060.0684 704.67383 L 971.875 814.69727 L 970.76562 814.86133 L 929.55273 1024.2988 L 1075.7852 1027.7598 L 1134.6582 1109.1387 L 1189.3438 1092.1348 L 1196.2871 1074.0391 L 1197.0176 1073.8594 z " /><path
       id="path36"
       style="fill:#d62969;fill-opacity:0.498039;stroke:#738823;stroke-width:2.95181"
       d="M 1558.3867 947.73242 L 1246.498 675.19336 L 1081.7871 701.24023 L 1197.0176 1073.8594 L 1515.0059 995.45117 L 1558.3867 947.73242 z " /><path
       id="path37"
       style="fill:#d62969;fill-opacity:0.498039;stroke:#738823;stroke-width:2.95181"
       d="M 1513.2598 583.29883 L 1374.4219 585.04492 L 1247.8066 674.98633 L 1246.498 675.19336 L 1558.3867 947.73242 L 1611.0586 889.79297 L 1627.6504 774.53125 L 1606.6934 645.29688 L 1513.2598 583.29883 z " /><path
       id="path6"
       style="fill:#d62969;fill-opacity:0.498039;stroke:#738823;stroke-width:2.95181"
       d="M 932.01562 1349.8613 L 886.51953 1425.9727 L 887.17383 1425.9395 L 929.96094 1487.9375 L 969.25586 1456.502 L 932.01562 1349.8613 z " /><path
       id="path27"
       style="fill:#d62969;fill-opacity:0.498039;stroke:#738823;stroke-width:2.95181"
       d="M 750.4375 1616.5098 L 717.77344 1539.457 L 717.98047 1539.0332 L 581.09766 1587.7656 L 585.91992 1639.002 L 666.25391 1708.8574 L 666.38281 1708.8789 L 750.4375 1616.5098 z " /><path
       id="path31"
       style="fill:#d62969;fill-opacity:0.498039;stroke:#738823;stroke-width:2.95181"
       d="M 876.89453 1618.9219 L 751.82812 1619.791 L 750.4375 1616.5098 L 666.38281 1708.8789 L 869.70898 1742.0391 L 919.14258 1715.4219 L 876.89453 1618.9219 z " /><path
       id="path32"
       style="fill:#d62969;fill-opacity:0.498039;stroke:#738823;stroke-width:2.95181"
       d="M 876.89453 1618.9219 L 919.14258 1715.4219 L 983.22656 1680.916 L 994.57812 1640.748 L 943.05859 1598.834 L 877.56836 1618.918 L 876.89453 1618.9219 z " /><path
       id="path30"
       style="fill:#d62969;fill-opacity:0.498039;stroke:#738823;stroke-width:2.95181"
       d="M 659.80664 1401.791 L 659.26758 1403.2363 L 571.94727 1490.5566 L 581.09766 1587.7656 L 717.98047 1539.0332 L 732.39844 1509.4746 L 659.80664 1401.791 z " /><path
       id="path29"
       style="fill:#d62969;fill-opacity:0.498039;stroke:#738823;stroke-width:2.95181"
       d="M 747.11914 1316.877 L 746.58789 1317.6621 L 678.47852 1351.7188 L 659.80664 1401.791 L 732.39844 1509.4746 L 770.16406 1432.0527 L 771.86914 1431.9629 L 747.11914 1316.877 z " /><path
       id="path28"
       style="fill:#d62969;fill-opacity:0.498039;stroke:#738823;stroke-width:2.95181"
       d="M 848.75391 1282.7344 L 766.67188 1287.9746 L 747.11914 1316.877 L 771.86914 1431.9629 L 886.51953 1425.9727 L 932.01562 1349.8613 L 930.83398 1346.4785 L 848.75391 1282.7344 z " /><path
       id="path7"
       style="fill:#d62969;fill-opacity:0.498039;stroke:#738823;stroke-width:2.95181"
       d="M 1237.5215 2539.9102 L 1137.6953 2484.5059 L 1226.25 2632.7969 L 1237.3652 2540.1797 L 1237.5215 2539.9102 z " /><path
       id="path51"
       style="fill:#d62969;fill-opacity:0.498039;stroke:#738823;stroke-width:2.95181"
       d="M 1306.9902 2329.3594 L 1091.0781 2243.4414 L 1074.3594 2251.2129 L 1017.5527 2283.3203 L 1137.6953 2484.5059 L 1237.5215 2539.9102 L 1301.5801 2429.0391 L 1306.5195 2330.248 L 1306.9902 2329.3594 z " /><path
       id="path52"
       style="fill:#d62969;fill-opacity:0.498039;stroke:#738823;stroke-width:2.95181"
       d="M 1328.6992 2270.5645 L 1161.9629 2210.498 L 1091.0781 2243.4414 L 1306.9902 2329.3594 L 1327.5117 2290.7305 L 1328.6992 2270.5645 z " /><path
       id="path53"
       style="fill:#d62969;fill-opacity:0.498039;stroke:#738823;stroke-width:2.95181"
       d="M 1346.0352 2136.3691 L 1199.084 2164.7715 L 1162.0371 2210.4629 L 1161.9629 2210.498 L 1328.6992 2270.5645 L 1328.748 2269.7363 L 1368.2637 2210.4629 L 1385.5527 2148.7168 L 1346.0352 2136.3691 z " /><path
       id="path8"
       style="fill:#d62969;fill-opacity:0.498039;stroke:#738823;stroke-width:2.95181"
       d="M 2291.9355 1269.4062 L 2242.5703 1155.8613 L 2242.9648 1155.1211 L 1684.9531 1231.1797 L 1807.8867 1501.6328 L 1953.1484 1566.4414 L 2291.9355 1269.4062 z " /><path
       id="path39"
       style="fill:#d62969;fill-opacity:0.498039;stroke:#738823;stroke-width:2.95181"
       d="M 4998.8555 3086.0566 L 4835.7188 3116.7734 L 4835.8496 3116.875 L 4860.5469 3507.1016 L 4998.8555 3512.041 L 4998.8555 3086.0566 z " /><path
       id="path42"
       style="fill:#d62969;fill-opacity:0.498039;stroke:#738823;stroke-width:2.95181"
       d="M 4905.1191 1817.4922 L 4905.0039 1817.7656 L 4381.4082 2049.9258 L 4380.627 2049.6348 L 4055.0176 2504.1973 L 4055.3965 2504.3672 L 4835.7188 3116.7734 L 4998.8555 3086.0566 L 4998.8555 1843.3203 L 4905.1191 1817.4922 z " /><path
       id="path41"
       style="fill:#d62969;fill-opacity:0.498039;stroke:#738823;stroke-width:2.95181"
       d="M 4998.8555 1595.4844 L 4905.1191 1817.4922 L 4998.8555 1843.3203 L 4998.8555 1595.4844 z " /><path
       id="path40"
       style="fill:#d62969;fill-opacity:0.498039;stroke:#738823;stroke-width:2.95181"
       d="M 2291.9355 1269.4062 L 1953.1484 1566.4414 L 4055.0176 2504.1973 L 4380.627 2049.6348 L 2291.9648 1269.4727 L 2291.9355 1269.4062 z " /><path
       id="path38"
       style="fill:#d62969;fill-opacity:0.498039;stroke:#738823;stroke-width:2.95181"
       d="M 2326.543 686.60156 L 1862.2227 740.9375 L 1684.3965 1229.9551 L 1684.9531 1231.1797 L 2242.9648 1155.1211 L 2440.1523 785.39258 L 2326.543 686.60156 z " /><path
       style="fill:#d62969;fill-opacity:0.498039;stroke:#738823;stroke-width:2.95181"
       d="m 1812.8261,2464.8507 -144.4828,175.3551 28.4026,186.4692 244.5093,76.5635 112.3754,-55.5703 29.6375,-85.2078 -6.1745,-172.8853 z"
       id="path9" /><path
       style="fill:#d62969;fill-opacity:0.498039;stroke:#738823;stroke-width:2.95181"
       d="m 2529.0653,2983.5067 -69.1542,93.852 -56.8052,98.7916 100.0266,151.8921 148.1874,-1.2349 75.3286,-146.9525 2.4698,-122.2546 z"
       id="path10" /><path
       style="fill:#d62969;fill-opacity:0.498039;stroke:#738823;stroke-width:2.95181"
       d="m 4191.2341,3305.8143 -191.4087,64.2145 -465.5555,-77.7983 -6.1745,-96.3219 202.5228,-124.7244 h 213.6369 l 263.0327,154.3619 z"
       id="path11" /><path
       id="path12"
       style="fill:#d62969;fill-opacity:0.498039;stroke:#738823;stroke-width:2.95181"
       d="M 3553.7949 5883.5 L 3551.5586 5883.041 L 3319.3984 5715.0938 L 2667.373 5700.2754 L 2548.8242 5823.7656 L 2445.0918 6347.3613 L 2805.5332 6808.7246 L 3553.7949 5883.5 z " /><path
       id="path66"
       style="fill:#d62969;fill-opacity:0.498039;stroke:#738823;stroke-width:2.95181"
       d="M 4082.1309 5991.25 L 4080.0938 5991.7109 L 3553.7949 5883.5 L 2805.5332 6808.7246 L 2939.0508 6979.627 L 4095.7695 6968.6113 L 4082.1309 5991.25 z " /><path
       id="path67"
       style="fill:#d62969;fill-opacity:0.498039;stroke:#738823;stroke-width:2.95181"
       d="M 4710.1211 5980.0234 L 4707.498 5979.4863 L 4687.8672 5853.9258 L 4082.1309 5991.25 L 4095.7695 6968.6113 L 4379.6484 6965.9082 L 4710.1211 5980.0234 z " /><path
       id="path68"
       style="fill:#d62969;fill-opacity:0.498039;stroke:#738823;stroke-width:2.95181"
       d="M 4710.1211 5980.0234 L 4379.6484 6965.9082 L 5013.6738 6959.8691 L 5008.7344 6041.1074 L 4710.1211 5980.0234 z " /><path
       id="path13"
       style="fill:#d62969;fill-opacity:0.498039;stroke:#738823;stroke-width:2.95181"
       d="M 5048.4844 5768.0898 L 4964.2109 5815.4473 L 4935.4629 6026.3906 L 5053.0879 6043.5293 L 5048.4844 5768.0898 z " /><path
       id="path56"
       style="fill:#d62969;fill-opacity:0.498039;stroke:#738823;stroke-width:2.95181"
       d="M 4954.2012 5156.4824 L 4954.3984 5156.9219 L 4832.9043 5689.5742 L 4964.3047 5814.7598 L 4964.2109 5815.4473 L 5048.4844 5768.0898 L 5038.375 5163.1523 L 4954.2012 5156.4824 z " /><path
       id="path55"
       style="fill:#d62969;fill-opacity:0.498039;stroke:#738823;stroke-width:2.95181"
       d="M 5029.3027 4620.2285 L 4737.3066 4673.3984 L 4954.2012 5156.4824 L 5038.375 5163.1523 L 5029.3027 4620.2285 z " /><path
       id="path54"
       style="fill:#d62969;fill-opacity:0.498039;stroke:#738823;stroke-width:2.95181"
       d="M 4909.9102 3975.7227 L 4909.9434 3976.3633 L 4682.7227 4124.5488 L 4341.8906 4213.4629 L 4252.9785 4307.3145 L 4302.375 4440.6836 L 4737.0586 4672.8438 L 4737.3066 4673.3984 L 5029.3027 4620.2285 L 5019.2461 4018.4297 L 4909.9102 3975.7227 z " /><path
       id="path43"
       style="fill:#d62969;fill-opacity:0.498039;stroke:#738823;stroke-width:2.95181"
       d="M 4895.125 3684.9277 L 4909.9102 3975.7227 L 5019.2461 4018.4297 L 5013.6738 3684.9277 L 4895.125 3684.9277 z " /><path
       id="path14"
       style="fill:#d62969;fill-opacity:0.498039;stroke:#738823;stroke-width:2.95181"
       d="M 3655.2852 4109.7246 L 3570.832 4653.4082 L 3571.3164 4653.084 L 3828.1758 4628.3867 L 4114.6699 4460.4414 L 4134.4297 4208.5234 L 3655.2891 4109.7305 L 3655.2852 4109.7246 z " /><path
       id="path57"
       style="fill:#d62969;fill-opacity:0.498039;stroke:#738823;stroke-width:2.95181"
       d="M 3231.0996 3808.1348 L 3379.3867 4781.0391 L 3570.832 4653.4082 L 3655.2852 4109.7246 L 3349.0352 3754.082 L 3231.0996 3808.1348 z " /><path
       id="path58"
       style="fill:#d62969;fill-opacity:0.498039;stroke:#738823;stroke-width:2.95181"
       d="M 2351.7617 4050.125 L 2707.3477 5183.2852 L 3245.3047 5068.0098 L 3378.6738 4781.5137 L 3379.3867 4781.0391 L 3264.5176 4027.3926 L 2512.4414 3947.873 L 2351.7617 4050.125 z " /><path
       id="path60"
       style="fill:#d62969;fill-opacity:0.498039;stroke:#738823;stroke-width:2.95181"
       d="M 2015.8906 4089.9082 L 2484.7793 5230.9785 L 2707.3477 5183.2852 L 2351.7617 4050.125 L 2351.2402 4050.457 L 2015.8906 4089.9082 z " /><path
       id="path63"
       style="fill:#d62969;fill-opacity:0.498039;stroke:#738823;stroke-width:2.95181"
       d="M 1417.3984 3882.2207 L 1364.4258 3824.0586 L 884.49023 3852.1348 L 884.18555 3852.873 L -54.335938 4332.0117 L -118.55078 5927.4961 L 623.43945 5973.5508 L 1417.3984 3882.2207 z " /><path
       id="path64"
       style="fill:#d62969;fill-opacity:0.498039;stroke:#738823;stroke-width:2.95181"
       d="M 2401.7012 5367.709 L 910.71094 5216.8633 L 623.43945 5973.5508 L 1313.9277 6016.4082 L 2361.1191 5700.2754 L 2440.1523 5487.873 L 2401.7012 5367.709 z " /><path
       id="path65"
       style="fill:#d62969;fill-opacity:0.498039;stroke:#738823;stroke-width:2.95181"
       d="M 1417.3984 3882.2207 L 910.71094 5216.8633 L 2401.7012 5367.709 L 2400.6367 5364.3848 L 2484.6094 5231.0156 L 2484.7793 5230.9785 L 2015.8906 4089.9082 L 2015.3496 4089.9727 L 1877.041 3991.1816 L 1417.6602 3882.5098 L 1417.3984 3882.2207 z " /><path
       id="path62"
       style="fill:#d62969;fill-opacity:0.498039;stroke:#738823;stroke-width:2.95181"
       d="M 1165.752 3605.8281 L 962.35156 3663.9707 L 884.49023 3852.1348 L 1364.4258 3824.0586 L 1165.7402 3605.8945 L 1165.752 3605.8281 z " /><path
       id="path61"
       style="fill:#d62969;fill-opacity:0.498039;stroke:#738823;stroke-width:2.95181"
       d="M 1062.0098 3423.1289 L 962.35156 3663.9707 L 1165.752 3605.8281 L 1195.3789 3423.1289 L 1062.0098 3423.1289 z " /><path
       id="path59"
       style="fill:#d62969;fill-opacity:0.498039;stroke:#738823;stroke-width:2.95181"
       d="M 2869.8965 3403.3711 L 2726.6484 3521.9219 L 2534.0039 3823.2363 L 2514.2461 3946.7246 L 2512.4414 3947.873 L 3264.5176 4027.3926 L 3231.0996 3808.1348 L 3230.4863 3808.416 L 3087.2383 3615.7734 L 3062.5391 3507.1016 L 2869.8965 3403.3711 z " /></g></svg>
