<?xml version="1.0" encoding="UTF-8" standalone="no"?>
<!-- Created with Inkscape (http://www.inkscape.org/) -->

<svg
   width="1000"
   height="1000"
   viewBox="0 0 1000 1000"
   version="1.1"
   id="svg1"
   inkscape:version="1.3.2 (091e20e, 2023-11-25, custom)"
   sodipodi:docname="new_uncut.svg"
   xml:space="preserve"
   xmlns:inkscape="http://www.inkscape.org/namespaces/inkscape"
   xmlns:sodipodi="http://sodipodi.sourceforge.net/DTD/sodipodi-0.dtd"
   xmlns="http://www.w3.org/2000/svg"
   xmlns:svg="http://www.w3.org/2000/svg"><sodipodi:namedview
     id="namedview1"
     pagecolor="#ffffff"
     bordercolor="#000000"
     borderopacity="0.25"
     inkscape:showpageshadow="2"
     inkscape:pageopacity="0.0"
     inkscape:pagecheckerboard="0"
     inkscape:deskcolor="#d1d1d1"
     inkscape:document-units="px"
     inkscape:zoom="0.14315118"
     inkscape:cx="1823.2473"
     inkscape:cy="6674.7618"
     inkscape:window-width="1920"
     inkscape:window-height="1129"
     inkscape:window-x="-8"
     inkscape:window-y="-8"
     inkscape:window-maximized="1"
     inkscape:current-layer="layer1" /><defs
     id="defs1" /><g
     inkscape:label="Layer 1"
     inkscape:groupmode="layer"
     id="layer1"><rect
       style="fill:#d62969;fill-opacity:0.498039;stroke:#738823;stroke-width:0.520044"
       id="rect1"
       width="39.479961"
       height="39.479954"
       x="12.050151"
       y="418.34515"
       ry="9.3186388" /><g
       id="g1"
       inkscape:export-filename="g1.png"
       inkscape:export-xdpi="96"
       inkscape:export-ydpi="96"><path
         style="fill:#d62969;fill-opacity:0.498039;stroke:#738823;stroke-width:2.95181"
         d="m -2.4697903,613.74289 40.7515393,45.69112 29.637484,3.70468 37.046857,29.63749 1.23489,90.14734 -39.516642,62.97965 -8.644266,35.81196 49.395808,103.73119 -108.6707751,4.93958 z"
         id="path1" /></g><g
       id="g2"
       inkscape:export-filename="g2.png"
       inkscape:export-xdpi="96"
       inkscape:export-ydpi="96"><path
         style="fill:#d62969;fill-opacity:0.498039;stroke:#738823;stroke-width:2.95181"
         d="m 0,1000.2651 112.37546,-6.17451 59.27496,8.64431 53.1005,74.0937 53.10049,22.2281 29.63748,85.2077 -51.8656,65.4495 -96.32182,41.9864 -101.261398,183.9994 4.93958,70.389 -35.811959,100.0265 1.234895,197.5832 62.979653,101.2615 H -3.7046854 Z"
         id="path2" /></g><g
       id="g6"
       inkscape:export-filename="g6.png"
       inkscape:export-xdpi="96"
       inkscape:export-ydpi="96"><path
         style="fill:#d62969;fill-opacity:0.498039;stroke:#738823;stroke-width:2.95181"
         d="m -7.4093709,1956.0739 123.4895109,2.4698 81.50308,27.1677 104.96609,130.8989 201.28791,44.4562 80.26818,-12.349 44.45623,-90.1473 33.34217,-6.1745 44.45622,88.9125 58.04007,-49.3958 46.92602,104.9661 66.68434,32.1072 53.10049,-20.9932 144.48276,171.6504 44.4562,148.1875 114.8452,113.6103 41.9865,339.5962 -117.3151,169.1806 -165.47591,-27.1677 -365.52896,-376.643 -616.212679,-211.1671 z"
         id="path3" /></g><g
       id="g3"
       inkscape:export-filename="g3.png"
       inkscape:export-xdpi="96"
       inkscape:export-ydpi="96"><path
         style="fill:#d62969;fill-opacity:0.498039;stroke:#738823;stroke-width:2.95181"
         d="m 467.16346,895.906 -101.29152,-1.7464 -7.85882,-23.57648 -45.40654,2.61961 -4.36602,50.64576 61.12419,89.93991 89.93989,89.0666 90.81308,-2.6196 22.70327,-49.7725 L 676.73212,993.70471 697.68898,845.26024 672.3661,804.21971 590.28505,798.1073 575.4406,727.37787 528.28765,674.11251 510.8236,629.57917 426.12293,580.67982 318.719,650.53603 l 26.19608,92.55949 h 52.39216 l 71.60263,59.37779 z"
         id="path4" /></g><g
       id="g4"
       inkscape:export-filename="g4.png"
       inkscape:export-xdpi="96"
       inkscape:export-ydpi="96"><path
         style="fill:#d62969;fill-opacity:0.498039;stroke:#738823;stroke-width:2.95181"
         d="m 928.2145,1024.2668 -37.54772,17.4641 -123.99478,-34.0549 -35.80132,-60.25104 16.59086,-63.7438 5.23921,-55.88497 118.75557,-13.97125 23.57648,12.22484 76.84184,-11.35163 88.19346,-110.02355 187.7386,-29.68889 126.6144,-89.93988 138.8392,-1.74641 93.4327,61.9974 20.9569,129.234 -16.5909,115.26276 -96.0523,105.65753 -318.719,78.58829 -28.8157,75.0954 -10.4784,47.1529 -16.5908,0.8732 -9.6053,-39.2941 4.366,-48.0261 -59.3777,-82.0811 z"
         id="path5" /></g><g
       id="g5"
       inkscape:export-filename="g5.png"
       inkscape:export-xdpi="96"
       inkscape:export-ydpi="96"><path
         style="fill:#d62969;fill-opacity:0.498039;stroke:#738823;stroke-width:2.95181"
         d="m 943.05895,1598.8342 51.51896,41.9137 -11.35164,40.1674 -113.51635,61.1241 -203.45624,-33.1817 -80.33465,-69.8562 -13.97124,-148.4444 87.32027,-87.3203 19.21046,-51.519 68.10981,-34.0549 20.08367,-29.6889 82.08105,-5.2392 82.08106,63.7438 38.42092,110.0236 -39.29412,31.4353 -42.78694,-61.9974 -117.00916,6.1124 -52.39217,107.4039 34.05491,80.3347 125.74119,-0.8732 z"
         id="path6" /></g><g
       id="g7"
       inkscape:export-filename="g7.png"
       inkscape:export-xdpi="96"
       inkscape:export-ydpi="96"><path
         style="fill:#d62969;fill-opacity:0.498039;stroke:#738823;stroke-width:2.95181"
         d="m 1017.5536,2283.3211 56.8052,-32.1073 87.6775,-40.7515 37.0469,-45.6911 146.9525,-28.4026 39.5167,12.3489 -17.2886,61.7448 -39.5166,59.275 -1.2349,20.9932 -20.9932,39.5166 -4.9396,98.7916 -64.2146,111.1406 -11.114,92.6171 z"
         id="path7" /></g><g
       id="g8"
       inkscape:export-filename="g8.png"
       inkscape:export-xdpi="96"
       inkscape:export-ydpi="96"><path
         style="fill:#d62969;fill-opacity:0.498039;stroke:#738823;stroke-width:2.95181"
         d="M 4055.3956,2504.3673 1807.8865,1501.6325 1684.397,1229.9556 l 177.8249,-489.01851 464.3205,-54.33539 113.6104,98.79161 -197.5832,370.46859 49.3958,113.6103 2089.4426,780.4537 523.5955,-232.1603 93.852,-222.2811 v 1916.5573 l -138.3082,-4.9396 -24.6979,-390.2269 z"
         id="path8" /></g><g
       id="g9"
       inkscape:export-filename="g9.png"
       inkscape:export-xdpi="96"
       inkscape:export-ydpi="96"><path
         style="fill:#d62969;fill-opacity:0.498039;stroke:#738823;stroke-width:2.95181"
         d="m 1812.8261,2464.8507 -144.4828,175.3551 28.4026,186.4692 244.5093,76.5635 112.3754,-55.5703 29.6375,-85.2078 -6.1745,-172.8853 z"
         id="path9" /></g><g
       id="g10"
       inkscape:export-filename="g10.png"
       inkscape:export-xdpi="96"
       inkscape:export-ydpi="96"><path
         style="fill:#d62969;fill-opacity:0.498039;stroke:#738823;stroke-width:2.95181"
         d="m 2529.0653,2983.5067 -69.1542,93.852 -56.8052,98.7916 100.0266,151.8921 148.1874,-1.2349 75.3286,-146.9525 2.4698,-122.2546 z"
         id="path10" /></g><g
       id="g11"
       inkscape:export-filename="g11.png"
       inkscape:export-xdpi="96"
       inkscape:export-ydpi="96"><path
         style="fill:#d62969;fill-opacity:0.498039;stroke:#738823;stroke-width:2.95181"
         d="m 4191.2341,3305.8143 -191.4087,64.2145 -465.5555,-77.7983 -6.1745,-96.3219 202.5228,-124.7244 h 213.6369 l 263.0327,154.3619 z"
         id="path11" /></g><g
       id="g14"
       inkscape:export-filename="g14.png"
       inkscape:export-xdpi="96"
       inkscape:export-ydpi="96"><path
         style="fill:#d62969;fill-opacity:0.498039;stroke:#738823;stroke-width:2.95181"
         d="m 3319.3981,5715.0947 -652.0246,-14.8187 -118.5499,123.4895 -103.7312,523.5955 493.958,632.2663 2074.6239,-19.7583 -4.9396,-918.762 -301.2373,-61.6206 -19.6298,-125.5613 -607.7741,137.7861 -528.5351,-108.6707 z"
         id="path12"
         sodipodi:nodetypes="cccccccccccc" /></g><g
       id="g13"
       inkscape:export-filename="g13.png"
       inkscape:export-xdpi="96"
       inkscape:export-ydpi="96"><path
         style="fill:#d62969;fill-opacity:0.498039;stroke:#738823;stroke-width:2.95181"
         d="m 5013.6743,3684.9271 h -118.55 l 14.8188,291.4353 -227.2207,148.1874 -340.8311,88.9124 -88.9124,93.8521 49.3958,133.3686 434.6831,232.1603 217.3415,484.0789 -121.4949,532.6529 131.3997,125.1845 -28.8413,211.6316 117.6253,17.1387 z"
         id="path13"
         sodipodi:nodetypes="cccccccccccccc" /></g><g
       id="g12"
       inkscape:export-filename="g12.png"
       inkscape:export-xdpi="96"
       inkscape:export-ydpi="96"><path
         style="fill:#d62969;fill-opacity:0.498039;stroke:#738823;stroke-width:2.95181"
         d="m 2440.1528,5487.874 -39.5166,-123.4895 83.9728,-133.3687 760.6954,-163.0061 133.3687,-286.4957 192.6436,-128.4291 256.8582,-24.6979 286.4957,-167.9457 19.7583,-251.9187 -479.1393,-98.7916 -306.254,-355.6498 -118.5499,54.3354 -143.2478,-192.6436 -24.6979,-108.6708 -192.6437,-103.7312 -143.2478,118.5499 -192.6437,301.3145 -19.7583,123.4895 -163.0062,103.7312 -335.8914,39.5166 -138.3083,-98.7916 -459.381,-108.6708 -251.9186,-276.6165 29.6375,-182.7645 h -133.3687 l -177.82488,429.7435 -938.520306,479.1394 -64.214544,1595.4845 1432.47833,88.9124 1047.1911,-316.1331 z"
         id="path14" /></g></g></svg>
