<?xml version="1.0" encoding="UTF-8" standalone="no"?>
<!-- Created with Inkscape (http://www.inkscape.org/) -->

<svg
   width="800mm"
   height="600mm"
   viewBox="0 0 800 600"
   version="1.1"
   id="svg1"
   inkscape:export-filename="비트맵.png"
   inkscape:export-xdpi="96"
   inkscape:export-ydpi="96"
   sodipodi:docname="redtest - 복사본.svg"
   inkscape:version="1.3.2 (091e20e, 2023-11-25, custom)"
   xml:space="preserve"
   xmlns:inkscape="http://www.inkscape.org/namespaces/inkscape"
   xmlns:sodipodi="http://sodipodi.sourceforge.net/DTD/sodipodi-0.dtd"
   xmlns="http://www.w3.org/2000/svg"
   xmlns:svg="http://www.w3.org/2000/svg"><sodipodi:namedview
   id="namedview1"
   pagecolor="#ffffff"
   bordercolor="#000000"
   borderopacity="0.25"
   inkscape:showpageshadow="2"
   inkscape:pageopacity="0.0"
   inkscape:pagecheckerboard="0"
   inkscape:deskcolor="#d1d1d1"
   inkscape:document-units="mm"
   inkscape:zoom="0.1767767"
   inkscape:cx="3354.5145"
   inkscape:cy="1213.3952"
   inkscape:window-width="1920"
   inkscape:window-height="1009"
   inkscape:window-x="-8"
   inkscape:window-y="-8"
   inkscape:window-maximized="1"
   inkscape:current-layer="g1" /><defs
   id="defs1" /><g
   inkscape:label="Layer 1"
   inkscape:groupmode="layer"
   id="g1">
 
     
     <g
   id="g2"><path
     style="fill:#29bdd6;fill-opacity:0.498039;stroke:#738823;stroke-width:0.781"
     d="m 571.74296,-173.61827 5.98683,187.088635 402.61481,11.9737 -47.89471,-196.068915 339.75301,-5.98684 55.3782,179.6051151 221.513,-32.9276101 -101.7762,-226.003105 -193.0755,4.49013 -29.9342,-181.10183 227.4998,4.49013 137.6973,-43.40457 -32.9276,-103.27295 -98.7829,-101.77622 -104.7696,32.9276 -184.0952,98.78281 -71.8421,67.35192 -240.97017,-32.92761 -49.39141,-40.41115 2.99341,-62.86178 -8.98025,-59.86837 -157.15448,11.97367 -65.85521,67.35192 -50.88811,44.90127 -94.29269,58.37167 -46.39799,43.40457 -2.99342,35.92102 17.96051,41.90786 13.47038,23.94735 85.31244,-16.4638 28.43747,-14.96709 94.29268,7.48354 91.29927,32.92761 19.45722,31.43089 -10.47697,52.38483 -89.80255,86.80913 h -8.98025 z"
     id="path2" />
     </g>
     </g>
  
   </svg>
