<?xml version="1.0" encoding="UTF-8" standalone="no"?>
<!-- Created with Inkscape (http://www.inkscape.org/) -->

<svg
   width="1000"
   height="1000"
   viewBox="0 0 1000 1000"
   version="1.1"
   id="svg1"
   inkscape:version="1.3.2 (091e20e, 2023-11-25, custom)"
   sodipodi:docname="new_map3 - 복사본.svg"
   xml:space="preserve"
   xmlns:inkscape="http://www.inkscape.org/namespaces/inkscape"
   xmlns:sodipodi="http://sodipodi.sourceforge.net/DTD/sodipodi-0.dtd"
   xmlns="http://www.w3.org/2000/svg"
   xmlns:svg="http://www.w3.org/2000/svg"><sodipodi:namedview
   id="namedview1"
   pagecolor="#ffffff"
   bordercolor="#000000"
   borderopacity="0.25"
   inkscape:showpageshadow="2"
   inkscape:pageopacity="0.0"
   inkscape:pagecheckerboard="0"
   inkscape:deskcolor="#d1d1d1"
   inkscape:document-units="px"
   inkscape:zoom="0.050611585"
   inkscape:cx="-1076.8286"
   inkscape:cy="6964.8085"
   inkscape:window-width="1920"
   inkscape:window-height="1009"
   inkscape:window-x="-8"
   inkscape:window-y="-8"
   inkscape:window-maximized="1"
   inkscape:current-layer="layer1" /><defs
   id="defs1" /><g
   inkscape:groupmode="layer"
   id="layer1"
   inkscape:label="Level4-5"><g
     id="g6"><path
       id="path73"
       style="fill:#6dec5e;stroke:#506feb;stroke-width:2.95181;stroke-opacity:0.498039"
       d="M 3005.0684 10118.1 L 2249.2754 10382.555 L 2221.4277 10946.469 L 2451.9531 11449.434 L 2996.832 11456.42 L 3005.0684 10118.1 z " /></g><g
     id="g5"><path
       id="path123"
       style="fill:#6dec5e;stroke:#506feb;stroke-width:2.95181;stroke-opacity:0.498039"
       d="M 2136.375 9585.0469 L 2004.873 9668.0996 L 2249.3711 10380.635 L 2249.2754 10382.555 L 3005.0684 10118.1 L 3007.2227 9767.9336 L 2136.375 9585.0469 z " /></g><g
     id="g4"><path
       id="path122"
       style="fill:#6dec5e;stroke:#73eb50;stroke-width:2.95181;stroke-opacity:0.49803922"
       d="M 2640.8887 8982.4883 L 2640.5645 8983.5098 L 2291.2832 9207.0488 L 2137.5996 9584.2734 L 2136.375 9585.0469 L 3007.2227 9767.9336 L 3009.8262 9344.8926 L 2640.8887 8982.4883 z " /></g><g
     id="g3"><path
       id="path121"
       style="fill:#6dec5e;stroke:#73eb50;stroke-width:2.95181;stroke-opacity:0.49803922"
       d="M 3015.1504 8479.8242 L 2780.1035 8543.9648 L 2640.8887 8982.4883 L 3009.8262 9344.8926 L 3015.1504 8479.8242 z " /></g><g
     id="g2"><path
       id="path120"
       style="fill:#6dec5e;stroke:#73eb50;stroke-width:2.95181;stroke-opacity:0.49803922"
       d="M 2828.9883 7878.5586 L 2829.1777 7879.7812 L 2710.4219 8201.1191 L 2780.2773 8543.416 L 2780.1035 8543.9648 L 3015.1504 8479.8242 L 3018.3047 7967.1152 L 2828.9883 7878.5586 z " /></g><g
     id="g1"><path
       id="path119"
       style="fill:#6dec5e;stroke:#73eb50;stroke-width:2.95181;stroke-opacity:0.49803922"
       d="M 2829.1777 6859.8809 L 2703.4355 7069.4492 L 2828.9883 7878.5586 L 3018.3047 7967.1152 L 3024.7734 6915.7656 L 2829.1777 6859.8809 z " /></g><g
     id="g25"><path
       id="path74"
       style="fill:#6dec5e;stroke:#506feb;stroke-width:2.95181;stroke-opacity:0.498039"
       d="M -807.60352 5670.0664 L -1330.7617 5665.3398 L -1337.7461 6119.4043 L -1218.1562 6126.2383 L -807.60352 5670.0664 z " /></g><g
     id="g28"><path
       id="path124"
       style="fill:#6dec5e;stroke:#73eb50;stroke-width:2.95181;stroke-opacity:0.49803922"
       d="M -740.23242 6766.541 L -710.25781 6502.0469 L -1005.8398 6539.5195 L -984.97266 6765.5742 L -836.52734 6828.4453 L -740.23242 6766.541 z " /></g><g
     id="g27"><path
       id="path126"
       style="fill:#6dec5e;stroke:#73eb50;stroke-width:2.95181;stroke-opacity:0.49803922"
       d="M -335.1543 6454.4941 L -710.25781 6502.0469 L -740.23242 6766.541 L -738.73047 6765.5742 L -571.07422 6774.3066 L -433.10938 6723.6602 L -335.31055 6454.7148 L -335.1543 6454.4941 z " /></g><g
     id="g26"><path
       id="path125"
       style="fill:#6dec5e;stroke:#506feb;stroke-width:2.95181;stroke-opacity:0.498039"
       d="M -807.60352 5670.0664 L -1218.1562 6126.2383 L -1215.498 6126.3906 L -1005.9297 6538.543 L -1005.8398 6539.5195 L -335.1543 6454.4941 L -230.52539 6308.0156 L -118.75586 5930.793 L -171.14844 5675.8184 L -807.60352 5670.0664 z " /></g><g
     id="g35"><path
       id="path75"
       style="fill:#6dec5e;stroke:#73eb50;stroke-width:2.95181;stroke-opacity:0.49803922"
       d="M -621.74805 9553.9414 L -865.64062 9509.9668 L -861.95703 9745.793 L -812.56055 9856.9336 L -681.66211 9851.9941 L -678.16602 9854.0234 L -621.74805 9553.9414 z " /></g><g
     id="g36"><path
       id="path133"
       style="fill:#6dec5e;stroke:#73eb50;stroke-width:2.95181;stroke-opacity:0.49803922"
       d="M -265.78516 9618.123 L -621.74805 9553.9414 L -678.16602 9854.0234 L -605.09766 9896.4492 L -375.4082 9911.2676 L -371.82227 9913.1484 L -265.78516 9618.123 z " /></g><g
     id="g37"><path
       id="path134"
       style="fill:#6dec5e;stroke:#73eb50;stroke-width:2.95181;stroke-opacity:0.49803922"
       d="M -265.78516 9618.123 L -371.82227 9913.1484 L -224.75 9990.3008 L -93.851562 10000.182 L -49.396484 9968.0742 L 0 9898.9199 L 2.4472656 9666.4863 L -265.78516 9618.123 z " /></g><g
     id="g34"><path
       id="path132"
       style="fill:#6dec5e;stroke:#73eb50;stroke-width:2.95181;stroke-opacity:0.49803922"
       d="M -1.875 9129.7207 L -869.2793 9277.1367 L -865.64062 9509.9668 L 2.4472656 9666.4863 L 2.4707031 9664.2891 L 116.08008 9402.4922 L -1.875 9129.7207 z " /></g><g
     id="g33"><path
       id="path131"
       style="fill:#6dec5e;stroke:#73eb50;stroke-width:2.95181;stroke-opacity:0.49803922"
       d="M -891.16211 8622.6387 L -876.77539 8797.3926 L -869.2793 9277.1367 L -1.875 9129.7207 L -2.4707031 9128.3457 L 22.228516 8873.957 L 23.167969 8873.2617 L -891.16211 8622.6387 z " /></g><g
     id="g32"><path
       id="path130"
       style="fill:#6dec5e;stroke:#73eb50;stroke-width:2.95181;stroke-opacity:0.49803922"
       d="M -937.71484 8057.1602 L -891.16211 8622.6387 L 23.167969 8873.2617 L 145.7168 8782.5742 L 192.64453 8698.6016 L 219.49219 8354.4336 L -937.71484 8057.1602 z " /></g><g
     id="g31"><path
       id="path129"
       style="fill:#6dec5e;stroke:#73eb50;stroke-width:2.95181;stroke-opacity:0.49803922"
       d="M -274.77344 7585.9023 L -958.84961 7714.5078 L -960.74805 7777.3691 L -937.71484 8057.1602 L 219.49219 8354.4336 L 219.81055 8350.3613 L 293.9043 8216.9922 L 261.79688 7928.0273 L -274.77344 7585.9023 z " /></g><g
     id="g30"><path
       id="path127"
       style="fill:#6dec5e;stroke:#73eb50;stroke-width:2.95181;stroke-opacity:0.49803922"
       d="M -561.57812 6961.6309 L -563.11133 6962.3379 L -827.37891 6962.3379 L -896.5332 6984.5664 L -940.99023 7122.875 L -958.84961 7714.5078 L -274.77344 7585.9023 L -276.61719 7584.7266 L -439.19531 7161.0352 L -561.57812 6961.6309 z " /></g><g
     id="g101"><path
       id="path128"
       style="fill:#6dec5e;stroke:#73eb50;stroke-width:2.95181;stroke-opacity:0.49803922"
       d="M -561.57812 6961.6309 L -439.19531 7161.0352 L -439.62305 7159.9219 L -429.74414 7056.1914 L -451.9707 6967.2773 L -498.89844 6932.7012 L -561.57812 6961.6309 z " /></g><g
     id="g17"><path
       id="path76"
       style="fill:#6dec5e;stroke:#506feb;stroke-width:2.95181;stroke-opacity:0.498039"
       d="M -1501.4258 10798.871 L -1490.9121 10506.367 L -1491.7539 10506.488 L -1560.9082 10427.455 L -1649.8203 10778.164 L -1501.4258 10798.871 z " /></g><g
     id="g16"><path
       id="path140"
       style="fill:#6dec5e;stroke:#506feb;stroke-width:2.95181;stroke-opacity:0.498039"
       d="M -1229.7754 10755.893 L -1318.2617 10480.992 L -1318.8672 10481.789 L -1490.9121 10506.367 L -1501.4258 10798.871 L -1437.418 10807.803 L -1229.7754 10755.893 z " /></g><g
     id="g15"><path
       id="path141"
       style="fill:#6dec5e;stroke:#506feb;stroke-width:2.95181;stroke-opacity:0.498039"
       d="M -962.97656 10689.242 L -1056.0996 10333.148 L -1057.0703 10333.602 L -1225.0156 10358.301 L -1318.2617 10480.992 L -1229.7754 10755.893 L -963.21875 10689.252 L -962.97656 10689.242 z " /></g><g
     id="g14"><path
       id="path142"
       style="fill:#6dec5e;stroke:#506feb;stroke-width:2.95181;stroke-opacity:0.498039"
       d="M -703.75586 10679.461 L -533.02539 10232.83 L -834.78906 10229.871 L -1056.0996 10333.148 L -962.97656 10689.242 L -703.75586 10679.461 z " /></g><g
     id="g13"><path
       id="path143"
       style="fill:#6dec5e;stroke:#506feb;stroke-width:2.95181;stroke-opacity:0.498039"
       d="M -278.03711 10708.004 L -328.82031 10233.744 L -330.95117 10234.811 L -533.02539 10232.83 L -703.75586 10679.461 L -701.41992 10679.373 L -405.04492 10718.891 L -278.03711 10708.004 z " /></g><g
     id="g12"><path
       id="path144"
       style="fill:#6dec5e;stroke:#506feb;stroke-width:2.95181;stroke-opacity:0.498039"
       d="M -34.916016 10704.072 L 195.79688 10179.541 L 192.64453 10180.475 L -143.24805 10140.959 L -328.82031 10233.744 L -278.03711 10708.004 C -197.0302 10706.25 -115.96235 10705.305 -34.916016 10704.072 z " /></g><g
     id="g11"><path
       id="path145"
       style="fill:#6dec5e;stroke:#506feb;stroke-width:2.95181;stroke-opacity:0.498039"
       d="M 865.92773 10696.658 L 459.83789 10101.061 L 459.38086 10101.441 L 195.79688 10179.541 L -34.916016 10704.072 C 265.24185 10699.506 565.59162 10697.911 865.92773 10696.658 z " /></g><g
     id="g10"><path
       id="path146"
       style="fill:#6dec5e;stroke:#506feb;stroke-width:2.95181;stroke-opacity:0.498039"
       d="M 632.94922 10354.957 L 745.58594 10065.006 L 740.9375 10066.865 L 548.29297 10027.348 L 459.83789 10101.061 L 632.94922 10354.957 z " /></g><g
     id="g9"><path
       id="path147"
       style="fill:#6dec5e;stroke:#506feb;stroke-width:2.95181;stroke-opacity:0.498039"
       d="M 1392.0352 10032.064 L 1249.7148 9997.7109 L 864.42578 10017.469 L 745.58594 10065.006 L 632.94922 10354.957 L 865.92773 10696.658 C 1000.265 10696.097 1134.5807 10695.486 1268.8867 10694.824 L 1392.0352 10032.064 z " /></g><g
     id="g8"><path
       id="path148"
       style="fill:#6dec5e;stroke:#506feb;stroke-width:2.95181;stroke-opacity:0.498039"
       d="M 1469.8965 10031.188 L 1467.0547 10032.287 L 1392.9609 10032.287 L 1392.0352 10032.064 L 1268.8867 10694.824 C 1315.0363 10694.597 1361.2111 10694.471 1407.3496 10694.193 L 1469.8965 10031.188 z " /></g><g
     id="g7"><path
       id="path149"
       style="fill:#6dec5e;stroke:#506feb;stroke-width:2.95181;stroke-opacity:0.498039"
       d="M 1469.8965 10031.188 L 1407.3496 10694.193 C 1407.4934 10694.192 1407.6374 10694.192 1407.7812 10694.191 L 1709.0957 10857.197 L 1926.4355 10832.5 L 1990.6504 10481.789 L 1901.7383 9987.832 L 1773.3086 9913.7383 L 1469.8965 10031.188 z " /></g><g
     id="g18"><path
       id="path77"
       style="fill:#6dec5e;stroke:#506feb;stroke-width:2.95181;stroke-opacity:0.498039"
       d="M -1669.5215 10105.861 L -1935.0273 10122.234 L -1916.5566 10797.924 L -1664.3242 10778.814 L -1560.9082 10415.105 L -1669.5781 10106.383 L -1669.5215 10105.861 z " /></g><g
     id="g19"><path
       id="path139"
       style="fill:#6dec5e;stroke:#506feb;stroke-width:2.95181;stroke-opacity:0.498039"
       d="M -1970.0996 8839.1855 L -1935.0273 10122.234 L -1669.5215 10105.861 L -1588.0742 9362.9746 L -1620.1543 8874.377 L -1970.0996 8839.1855 z " /></g><g
     id="g20"><path
       id="path138"
       style="fill:#6dec5e;stroke:#506feb;stroke-width:2.95181;stroke-opacity:0.498039"
       d="M -1694.1992 8076.623 L -1989.8379 8117.0684 L -1970.0996 8839.1855 L -1620.1543 8874.377 L -1620.1816 8873.957 L -1583.1348 8676.373 L -1694.1992 8076.623 z " /></g><g
     id="g21"><path
       id="path137"
       style="fill:#6dec5e;stroke:#506feb;stroke-width:2.95181;stroke-opacity:0.498039"
       d="M -1662.1934 7067.2207 L -2017.1406 7118.2637 L -1989.8379 8117.0684 L -1694.1992 8076.623 L -1694.2754 8076.2148 L -1612.7734 7651.4102 L -1597.9551 7196.9688 L -1662.168 7068.5391 L -1662.1934 7067.2207 z " /></g><g
     id="g22"><path
       id="path136"
       style="fill:#6dec5e;stroke:#506feb;stroke-width:2.95181;stroke-opacity:0.498039"
       d="M -1731.0293 6469.3867 L -2033.7266 6511.4824 L -2017.1406 7118.2637 L -1662.1934 7067.2207 L -1669.5781 6680.7832 L -1731.0293 6469.3867 z " /></g><g
     id="g23"><path
       id="path135"
       style="fill:#6dec5e;stroke:#506feb;stroke-width:2.95181;stroke-opacity:0.498039"
       d="M -1679.457 6223.8711 L -2035.1074 6460.9707 L -2033.7266 6511.4824 L -1731.0293 6469.3867 L -1731.3223 6468.3809 L -1610.3027 6300.4355 L -1679.457 6223.8711 z " /></g><g
     id="g100"
     transform="translate(-1428.5597,111.76995)"><path
       style="fill:#5e68ec;fill-opacity:1;stroke:#73eb50;stroke-width:2.95181;stroke-opacity:0.498039"
       d="m 3424.4568,9566.1651 -197.5833,224.751 109.9057,74.094 155.5968,-95.087 z"
       id="path78" /></g><g
     id="g29"><path
       style="fill:#5e68ec;fill-opacity:1;stroke:#73eb50;stroke-width:2.95181;stroke-opacity:0.49803922"
       d="m -820.75384,6835.2946 91.6863,-61.9974 163.2889,12.2249 4.366,165.0353 -254.9752,1.7464 z"
       id="path79" /></g><g
     id="g24"><path
       style="fill:#5e68ec;fill-opacity:1;stroke:#506feb;stroke-width:2.95181;stroke-opacity:0.498039"
       d="m -1670.1934,6216.3515 66.6843,72.8588 260.5629,-155.5968 -27.1677,-85.2077 z"
       id="path80" /></g><g
     id="g38"><path
       id="path104"
       style="fill:#5e6dec;fill-opacity:1;stroke:#73eb50;stroke-width:2.95181;stroke-opacity:0.49803922"
       d="M 1780.2695 6169.8281 L 1731.0371 6239.6973 L 1731.1836 6256.3984 L 2269.2676 6258.0586 L 2268.8809 6170.2988 L 1780.2734 6170.5098 L 1780.2695 6169.8281 z " /></g><g
     id="g39"><path
       id="path154"
       style="fill:#5e6dec;fill-opacity:1;stroke:#73eb50;stroke-width:2.95181;stroke-opacity:0.49803922"
       d="M 1778.6152 5903.6094 L 1728.1152 5906.5195 L 1731.0371 6239.6973 L 1780.2695 6169.8281 L 1778.6152 5903.6094 z " /></g><g
     id="g68"><path
       style="fill:#5e6dec;fill-opacity:1;stroke:#73eb50;stroke-width:2.95181;stroke-opacity:0.49803922"
       d="m 1234.7087,6026.8452 0,231.3987 51.5189,-0.8732 2.6196,-229.6523 z"
       id="path105"
       sodipodi:nodetypes="ccccc" /></g><g
     id="g71"><path
       id="path106"
       style="fill:#5e6dec;fill-opacity:1;stroke:#73eb50;stroke-width:2.95181;stroke-opacity:0.49803922"
       d="M 1041.7305 6178.3047 L 991.08203 6255.5527 L 988.46484 6686.9863 L 1041.7305 6689.6055 L 1041.7305 6178.3047 z " /></g><g
     id="g70"><path
       id="path156"
       style="fill:#5e6dec;fill-opacity:1;stroke:#73eb50;stroke-width:2.95181;stroke-opacity:0.49803922"
       d="M 795.14062 6168.3086 L 743.57227 6205.6465 L 744.8418 6253.877 L 991.08594 6254.752 L 991.08203 6255.5527 L 1041.7305 6178.3047 L 1041.7305 6170.0508 L 795.14062 6168.3086 z " /></g><g
     id="g69"><path
       id="path157"
       style="fill:#5e6dec;fill-opacity:1;stroke:#73eb50;stroke-width:2.95181;stroke-opacity:0.49803922"
       d="M 737.85547 5988.4238 L 743.57227 6205.6465 L 795.14062 6168.3086 L 794.61523 6168.3047 L 793.74219 5990.1699 L 737.85547 5988.4238 z " /></g><g
     id="g40"><path
       id="path107"
       style="fill:#5e6dec;fill-opacity:1;stroke:#73eb50;stroke-width:2.95181;stroke-opacity:0.49803922"
       d="M 2462.4316 6580.4277 L 2556.7617 6684.1191 L 2694.7031 6685.2402 L 2460.6855 6388.3516 L 2462.4316 6580.4277 z " /></g><g
     id="g55"><path
       id="path155"
       style="fill:#5e6dec;fill-opacity:1;stroke:#73eb50;stroke-width:2.95181;stroke-opacity:0.49803922"
       d="M 735.25 6691.3398 L 790.07812 6659.8203 L 791.12109 6596.1738 L 556.24609 6589.3164 L 490.46484 6608.0371 L 490.74023 6690.4785 L 735.23633 6690.4785 L 735.25 6691.3398 z " /></g><g
     id="g54"><path
       id="path159"
       style="fill:#5e6dec;fill-opacity:1;stroke:#73eb50;stroke-width:2.95181;stroke-opacity:0.498039"
       d="m 741.06836,7037.457 43.06836,-15.1601 5.9414,-362.4766 -54.82812,31.5195 z"
       sodipodi:nodetypes="ccccc" /></g><g
     id="g47"><path
       id="path160"
       style="fill:#5e6dec;fill-opacity:1;stroke:#73eb50;stroke-width:2.95181;stroke-opacity:0.49803922"
       d="M 1677.2109 6590.7617 L 1778.4277 6686.9863 L 2025.8301 6686.9863 L 2020.5918 6594.4277 L 1677.2109 6590.7617 z " /></g><g
     id="g41"><path
       id="path161"
       style="fill:#5e6dec;fill-opacity:1;stroke:#73eb50;stroke-width:2.95181;stroke-opacity:0.49803922"
       d="M 2215.8945 6658.1328 L 2265.2227 6681.75 L 2556.7617 6684.1191 L 2462.4316 6580.4277 L 2462.4316 6580.4551 L 2216.1895 6585.6953 L 2215.8945 6658.1328 z " /></g><g
     id="g42"><path
       id="path162"
       style="fill:#5e6dec;fill-opacity:1;stroke:#73eb50;stroke-width:2.95181;stroke-opacity:0.49803922"
       d="M 2214.1152 7015.3125 L 2259.3008 7037.6738 L 2265.0879 6681.748 L 2265.2227 6681.75 L 2215.8945 6658.1328 L 2214.4414 7015.3105 L 2214.1152 7015.3125 z " /></g><g
     id="g43"><path
       id="path163"
       style="fill:#5e6dec;fill-opacity:1;stroke:#73eb50;stroke-width:2.95181;stroke-opacity:0.49803922"
       d="M 1997.3906 7017.1113 L 2028.3652 7114.8438 L 2258.1016 7111.3633 L 2259.3008 7037.6738 L 2214.1152 7015.3125 L 1997.3906 7017.1113 z " /></g><g
     id="g46"><path
       id="path164"
       style="fill:#5e6dec;fill-opacity:1;stroke:#73eb50;stroke-width:2.95181;stroke-opacity:0.49803922"
       d="M 2027.9824 7458.8984 L 1976.0273 7472.9766 L 1976.9316 7547.9648 L 2258.1016 7546.2188 L 2266.834 7458.8984 L 2027.9824 7458.8984 z " /></g><g
     id="g45"><path
       id="path165"
       style="fill:#5e6dec;fill-opacity:1;stroke:#73eb50;stroke-width:2.95181;stroke-opacity:0.49803922"
       d="M 2021.7793 7094.0664 L 1971.6914 7113.1758 L 1976.0273 7472.9766 L 2027.9824 7458.8984 L 2024.084 7458.8984 L 2027.5762 7114.8555 L 2028.3652 7114.8438 L 2021.7793 7094.0664 z " /></g><g
     id="g44"><path
       id="path166"
       style="fill:#5e6dec;fill-opacity:1;stroke:#73eb50;stroke-width:2.95181;stroke-opacity:0.49803922"
       d="M 1794.5312 7018.7949 L 1728.7969 7113.1094 L 1971.6914 7113.1094 L 1971.6914 7113.1758 L 2021.7793 7094.0664 L 1997.3906 7017.1113 L 1794.5312 7018.7949 z " /></g><g
     id="g67"><path
       id="path167"
       style="fill:#5e6dec;fill-opacity:1;stroke:#73eb50;stroke-width:2.95181;stroke-opacity:0.49803922"
       d="M 1529.8516 7944.1445 L 1482.6953 7909.2949 L 1482.6973 7909.4707 L 1246.9336 7898.9922 L 1245.1875 7968.8477 L 1529.8516 7977.5801 L 1529.8516 7944.1445 z " /></g><g
     id="g66"><path
       id="path170"
       style="fill:#5e6dec;fill-opacity:1;stroke:#73eb50;stroke-width:2.95181;stroke-opacity:0.49803922"
       d="M 1476.3047 7089.4277 L 1482.6953 7909.2949 L 1529.8516 7944.1445 L 1529.8516 7113.1094 L 1529.9824 7113.1094 L 1476.3047 7089.4277 z " /></g><g
     id="g65"><path
       id="path169"
       style="fill:#5e6dec;fill-opacity:1;stroke:#73eb50;stroke-width:2.95181;stroke-opacity:0.49803922"
       d="M 1719.3418 7010.084 L 1475.7129 7013.5645 L 1476.3047 7089.4277 L 1529.9824 7113.1094 L 1728.7969 7113.1094 L 1776.2441 7045.0332 L 1719.3418 7010.084 z " /></g><g
     id="g48"><path
       id="path168"
       style="fill:#5e6dec;fill-opacity:1;stroke:#73eb50;stroke-width:2.95181;stroke-opacity:0.49803922"
       d="M 1750.4883 6660.4238 L 1706.248 6687.2031 L 1720.209 7010.0723 L 1719.3418 7010.084 L 1776.2441 7045.0332 L 1794.5312 7018.7949 L 1793.5586 7018.8027 L 1777.8398 6686.9863 L 1778.4277 6686.9863 L 1750.4883 6660.4238 z " /></g><g
     id="g49"><path
       id="path48"
       style="fill:#5e6dec;fill-opacity:1;stroke:#73eb50;stroke-width:2.95181;stroke-opacity:0.49803922"
       d="M 1529.8555 6588.8672 L 1452.2871 6683.7305 L 1706.2383 6686.9863 L 1706.248 6687.2031 L 1750.4883 6660.4238 L 1677.2109 6590.7617 L 1529.8516 6589.1875 L 1529.8555 6588.8672 z " /></g><g
     id="g61"><path
       id="path171"
       style="fill:#5e6dec;fill-opacity:1;stroke:#73eb50;stroke-width:2.95181;stroke-opacity:0.49803922"
       d="M 778.29883 7883.873 L 508.20312 7886.7676 L 502.96484 7970.5938 L 736.98242 7968.8477 L 736.98828 7969.5586 L 778.29883 7883.873 z " /></g><g
     id="g64"><path
       id="path179"
       style="fill:#5e6dec;fill-opacity:1;stroke:#73eb50;stroke-width:2.95181;stroke-opacity:0.49803922"
       d="M 1028.9922 8314.6309 L 988.97266 8347.5371 L 990.21094 8408.9414 L 1292.3398 8401.957 L 1276.623 8311.1426 L 1028.9922 8314.6309 z " /></g><g
     id="g63"><path
       id="path182"
       style="fill:#5e6dec;fill-opacity:1;stroke:#73eb50;stroke-width:2.95181;stroke-opacity:0.49803922"
       d="M 1033.6016 7950.2754 L 979.80859 7975.8496 L 981.48047 7975.834 L 988.97266 8347.5371 L 1028.9922 8314.6309 L 1028.6328 8314.6367 L 1033.6016 7950.2754 z " /></g><g
     id="g62"><path
       id="path180"
       style="fill:#5e6dec;fill-opacity:1;stroke:#73eb50;stroke-width:2.95181;stroke-opacity:0.49803922"
       d="M 803.6875 7977.5762 L 748.39844 7945.8926 L 736.98828 7969.5586 L 740.47656 8381 L 801.59961 8393.2246 L 803.3457 7977.5801 L 803.6875 7977.5762 z " /></g><g
     id="g60"><path
       id="path181"
       style="fill:#5e6dec;fill-opacity:1;stroke:#73eb50;stroke-width:2.95181;stroke-opacity:0.49803922"
       d="M 996.91211 7881.5312 L 778.29883 7883.873 L 748.39844 7945.8926 L 803.6875 7977.5762 L 979.80859 7975.8496 L 1033.6016 7950.2754 L 1034.2832 7900.2598 L 996.91211 7881.5312 z " /></g><g
     id="g59"><path
       id="path178"
       style="fill:#5e6dec;fill-opacity:1;stroke:#73eb50;stroke-width:2.95181;stroke-opacity:0.49803922"
       d="M 982.95312 7532.5 L 997.19727 7881.5273 L 996.91211 7881.5312 L 1034.2832 7900.2598 L 1039.1113 7546.2227 L 982.95312 7532.5 z " /></g><g
     id="g58"><path
       id="path177"
       style="fill:#5e6dec;fill-opacity:1;stroke:#73eb50;stroke-width:2.95181;stroke-opacity:0.49803922"
       d="M 1234.709 7453.5742 L 1234.709 7453.6582 L 979.73438 7453.6582 L 982.95312 7532.5 L 1039.1113 7546.2227 L 1039.1113 7546.2188 L 1280.1152 7539.2324 L 1281.166 7487.6484 L 1234.709 7453.5742 z " /></g><g
     id="g57"><path
       id="path176"
       style="fill:#5e6dec;fill-opacity:1;stroke:#73eb50;stroke-width:2.95181;stroke-opacity:0.49803922"
       d="M 1289.1172 7097.2773 L 1236.4531 7118.7246 L 1234.709 7453.5742 L 1281.166 7487.6484 L 1289.1172 7097.2773 z " /></g><g
     id="g53"><path
       id="path175"
       style="fill:#5e6dec;fill-opacity:1;stroke:#73eb50;stroke-width:2.95181;stroke-opacity:0.49803922"
       d="M 1232.9629 7015.2363 L 1232.9629 7015.3105 L 787.30469 7022.248 L 741.06836 7037.457 L 742.22266 7106.123 L 1236.4551 7118.3477 L 1236.4531 7118.7246 L 1289.1172 7097.2773 L 1290.2012 7044.0469 L 1232.9629 7015.2363 z " /></g><g
     id="g52"><path
       id="path174"
       style="fill:#5e6dec;fill-opacity:1;stroke:#73eb50;stroke-width:2.95181;stroke-opacity:0.49803922"
       d="M 1235.8496 6658.6191 L 1232.9629 7015.2363 L 1290.2012 7044.0469 L 1297.5762 6681.8965 L 1235.8496 6658.6191 z " /></g><g
     id="g51"><path
       id="path173"
       style="fill:#5e6dec;fill-opacity:1;stroke:#73eb50;stroke-width:2.95181;stroke-opacity:0.49803922"
       d="M 1477.457 6578.3926 L 1477.459 6578.709 L 1236.4551 6583.9492 L 1235.8496 6658.6191 L 1297.5762 6681.8965 L 1297.5801 6681.748 L 1452.2871 6683.7305 L 1514.0977 6608.1387 L 1477.457 6578.3926 z " /></g><g
     id="g50"><path
       id="path172"
       style="fill:#5e6dec;fill-opacity:1;stroke:#73eb50;stroke-width:2.95181;stroke-opacity:0.49803922"
       d="M 1473.9668 6166.5566 L 1477.457 6578.3926 L 1514.0977 6608.1387 L 1529.8555 6588.8672 L 1535.0898 6168.3047 L 1473.9668 6166.5566 z " /></g><g
     id="g56"><path
       id="path158"
       style="fill:#5e6dec;fill-opacity:1;stroke:#73eb50;stroke-width:2.95181;stroke-opacity:0.498039"
       d="m 488.99414,6166.5566 1.4707,441.4805 61.39844,-18.8496 v -412.1523 z"
       sodipodi:nodetypes="ccccc" /></g><g
     id="g73"><path
       id="path108"
       style="fill:#5e6dec;fill-opacity:1;stroke:#73eb50;stroke-width:2.95181;stroke-opacity:0.49803922"
       d="M 2241.252 7881.1758 L 2200.4707 7881.5273 L 2216.1895 8833.3184 L 2275.5664 8828.0801 L 2270.3262 7946.1445 L 2270.918 7946.1348 L 2241.252 7881.1758 z " /></g><g
     id="g72"><path
       id="path89"
       style="fill:#5e6dec;fill-opacity:1;stroke:#73eb50;stroke-width:2.95181;stroke-opacity:0.49803922"
       d="M 2241.252 7881.1758 L 2270.918 7946.1348 L 2794.248 7937.4121 L 2808.2207 7876.2891 L 2241.252 7881.1758 z " /></g><g
     id="g98"><path
       id="path109"
       style="fill:#5e6dec;fill-opacity:1;stroke:#73eb50;stroke-width:2.95181;stroke-opacity:0.49803922"
       d="M 2000.2441 9168.3555 L 2028.3828 9261.7012 L 2230.2207 9258.0098 L 2330.248 9172.8008 L 2000.2441 9168.3555 z " /></g><g
     id="g97"><path
       id="path92"
       style="fill:#5e6dec;fill-opacity:1;stroke:#73eb50;stroke-width:2.95181;stroke-opacity:0.49803922"
       d="M 1963.4824 9499.6621 L 2017.9043 9518.5273 L 2027.6973 9261.7129 L 2028.3828 9261.7012 L 2000.2441 9168.3555 L 1963.4824 9167.8613 L 1963.4824 9499.6621 z " /></g><g
     id="g96"><path
       id="path93"
       style="fill:#5e6dec;fill-opacity:1;stroke:#73eb50;stroke-width:2.95181;stroke-opacity:0.49803922"
       d="M 1782.5059 9496.4043 L 1726.918 9506.9316 L 1727.6191 9555.6191 L 2016.584 9553.1484 L 2017.9043 9518.5273 L 1963.4824 9499.6621 L 1963.4824 9500.0488 L 1782.5059 9496.4043 z " /></g><g
     id="g95"><path
       id="path94"
       style="fill:#5e6dec;fill-opacity:1;stroke:#73eb50;stroke-width:2.95181;stroke-opacity:0.49803922"
       d="M 1720.209 9040.668 L 1726.918 9506.9316 L 1782.5059 9496.4043 L 1779.4844 9496.3438 L 1775.7793 9041.9023 L 1720.209 9040.668 z " /></g><g
     id="g94"><path
       id="path110"
       style="fill:#5e6dec;fill-opacity:1;stroke:#73eb50;stroke-width:2.95181;stroke-opacity:0.49803922"
       d="M 1537.75 9682.959 L 1478.1719 9695.6289 L 1479.4043 10023.645 L 1533.7402 9997.7109 L 1537.75 9682.959 z " /></g><g
     id="g93"><path
       id="path95"
       style="fill:#5e6dec;fill-opacity:1;stroke:#73eb50;stroke-width:2.95181;stroke-opacity:0.49803922"
       d="M 1231.1895 9607.4844 L 1242.3047 9691.457 L 1478.1699 9695.1621 L 1478.1719 9695.6289 L 1537.75 9682.959 L 1538.6797 9609.9531 L 1231.1895 9607.4844 z " /></g><g
     id="g92"><path
       id="path111"
       style="fill:#5e6dec;fill-opacity:1;stroke:#73eb50;stroke-width:2.95181;stroke-opacity:0.49803922"
       d="M 1276.6211 8799.6348 L 1225.0273 8830.043 L 1234.8945 9261.7129 L 1274.4121 9259.2441 L 1276.6211 8799.6348 z " /></g><g
     id="g90"><path
       id="path96"
       style="fill:#5e6dec;fill-opacity:1;stroke:#73eb50;stroke-width:2.95181;stroke-opacity:0.49803922"
       d="M 1042.7188 8831.9648 L 988.09766 8817.0449 L 990.38672 9684.0469 L 1034.8418 9684.0469 L 1042.252 8831.9707 L 1042.7188 8831.9648 z " /></g><g
     id="g91"><path
       id="path97"
       style="fill:#5e6dec;fill-opacity:1;stroke:#73eb50;stroke-width:2.95181;stroke-opacity:0.49803922"
       d="M 1276.8809 8745.5273 L 987.91602 8747.998 L 988.09766 8817.0449 L 1042.7188 8831.9648 L 1225.0156 8829.5 L 1225.0273 8830.043 L 1276.6211 8799.6348 L 1276.8809 8745.5273 z " /></g><g
     id="g89"><path
       id="path112"
       style="fill:#5e6dec;fill-opacity:1;stroke:#73eb50;stroke-width:2.95181;stroke-opacity:0.49803922"
       d="M 314.07812 9607.4902 L 252.24805 9620.0098 L 251.91797 9688.9863 L 986.06445 9687.1348 L 985.44727 9608.7188 L 314.07812 9607.4902 z " /></g><g
     id="g88"><path
       id="path98"
       style="fill:#5e6dec;fill-opacity:1;stroke:#73eb50;stroke-width:2.95181;stroke-opacity:0.49803922"
       d="M 301.36133 9264.1836 L 254.00781 9252.1797 L 252.24805 9620.0098 L 314.07812 9607.4902 L 311.19336 9607.4844 L 301.31445 9264.1836 L 301.36133 9264.1836 z " /></g><g
     id="g87"><path
       id="path99"
       style="fill:#5e6dec;fill-opacity:1;stroke:#73eb50;stroke-width:2.95181;stroke-opacity:0.49803922"
       d="M 545.82422 9170.332 L 254.38867 9172.8008 L 254.00781 9252.1797 L 301.36133 9264.1836 L 553.23242 9269.123 L 545.82422 9170.332 z " /></g><g
     id="g99"><path
       style="fill:#5e6dec;fill-opacity:1;stroke:#73eb50;stroke-width:2.95181;stroke-opacity:0.49803922"
       d="m 748.34645,8752.9367 46.92602,-2.4698 -4.93958,516.1862 h -44.45623 z"
       id="path113" /></g><g
     id="g86"><path
       style="fill:#5e6dec;fill-opacity:1;stroke:#73eb50;stroke-width:2.95181;stroke-opacity:0.49803922"
       d="m 195.11343,8733.1784 355.6498,4.9396 -9.87916,101.2614 -432.2133,4.9395 z"
       id="path114" /></g><g
     id="g76"><path
       id="path115"
       style="fill:#5e6dec;fill-opacity:1;stroke:#73eb50;stroke-width:2.95181;stroke-opacity:0.49803922"
       d="M 1541.1309 8832.4668 L 1477.9453 8813.4688 L 1484.3438 9259.2441 L 1526.3301 9261.7129 L 1541.1309 8832.4668 z " /></g><g
     id="g75"><path
       id="path91"
       style="fill:#5e6dec;fill-opacity:1;stroke:#73eb50;stroke-width:2.95181;stroke-opacity:0.49803922"
       d="M 1966.6484 8740.5977 L 1476.9355 8743.0566 L 1477.9453 8813.4688 L 1541.1309 8832.4668 L 1541.1484 8831.9707 L 2020.2891 8831.9707 L 2020.0957 8758.1562 L 1966.6484 8740.5977 z " /></g><g
     id="g74"><path
       id="path90"
       style="fill:#5e6dec;fill-opacity:1;stroke:#73eb50;stroke-width:2.95181;stroke-opacity:0.49803922"
       d="M 2017.8184 7886.041 L 1975.832 7893.4492 L 1968.4219 8740.5879 L 1966.6484 8740.5977 L 2020.0957 8758.1562 L 2017.8184 7886.041 z " /></g><g
     id="g78"><path
       id="path116"
       style="fill:#5e6dec;fill-opacity:1;stroke:#73eb50;stroke-width:2.95181;stroke-opacity:0.49803922"
       d="M 1777.6426 8331.6309 L 1732.7246 8313.3047 L 1481.875 8310.8438 L 1471.9941 8402.2266 L 1778.248 8409.6367 L 1777.6426 8331.6309 z " /></g><g
     id="g77"><path
       id="path88"
       style="fill:#5e6dec;fill-opacity:1;stroke:#73eb50;stroke-width:2.95181;stroke-opacity:0.49803922"
       d="M 1726.3828 7453.8262 L 1733.793 8313.3145 L 1732.7246 8313.3047 L 1777.6426 8331.6309 L 1770.8398 7453.8262 L 1726.3828 7453.8262 z " /></g><g
     id="g85"><path
       style="fill:#5e6dec;fill-opacity:1;stroke:#73eb50;stroke-width:2.95181;stroke-opacity:0.49803922"
       d="m 251.91861,8320.7234 293.90504,-4.9396 -4.93958,96.3219 H 234.63008 Z"
       id="path117" /></g><g
     id="g84"><path
       id="path118"
       style="fill:#5e6dec;fill-opacity:1;stroke:#73eb50;stroke-width:2.95181;stroke-opacity:0.49803922"
       d="M 169.09961 6946.1621 L 169.09375 6945.3848 L -428.92578 6947.8555 L -431.76758 7016.834 L 112.66602 7014.0664 L 169.09961 6946.1621 z " /></g><g
     id="g79"><path
       id="path83"
       style="fill:#5e6dec;fill-opacity:1;stroke:#73eb50;stroke-width:2.95181;stroke-opacity:0.49803922"
       d="M 400.15039 7542.7402 L 328.96094 7630.7246 L 629.79688 7629.1816 L 627.32617 7540.2695 L 400.15039 7542.7402 z " /></g><g
     id="g80"><path
       id="path86"
       style="fill:#5e6dec;fill-opacity:1;stroke:#73eb50;stroke-width:2.95181;stroke-opacity:0.49803922"
       d="M 383.78125 7562.9707 L 355.5625 7530.3926 L 149.27539 7532.9297 L 148.1875 7631.6523 L 328.96094 7630.7246 L 383.78125 7562.9707 z " /></g><g
     id="g81"><path
       id="path87"
       style="fill:#5e6dec;fill-opacity:1;stroke:#73eb50;stroke-width:2.95181;stroke-opacity:0.49803922"
       d="M 394.27344 7171.5938 L 350.0918 7193.3008 L 355.65039 7530.3906 L 355.5625 7530.3926 L 383.78125 7562.9707 L 400.15039 7542.7402 L 400.10547 7542.7402 L 394.27344 7171.5938 z " /></g><g
     id="g82"><path
       id="path85"
       style="fill:#5e6dec;fill-opacity:1;stroke:#73eb50;stroke-width:2.95181;stroke-opacity:0.49803922"
       d="M 393.31445 7110.5254 L 170.41602 7112.9961 L 170.41406 7112.8496 L 115.69727 7127.4199 L 117.31445 7196.9688 L 350.0918 7193.2637 L 350.0918 7193.3008 L 394.27344 7171.5938 L 393.31445 7110.5254 z " /></g><g
     id="g83"><path
       id="path84"
       style="fill:#5e6dec;fill-opacity:1;stroke:#73eb50;stroke-width:2.95181;stroke-opacity:0.49803922"
       d="M 169.09961 6946.1621 L 112.66602 7014.0664 L 113.0625 7014.0645 L 115.69727 7127.4199 L 170.41406 7112.8496 L 169.09961 6946.1621 z " /></g></g>
         </svg>
