<?xml version="1.0" encoding="UTF-8" standalone="no"?>
<!-- Created with Inkscape (http://www.inkscape.org/) -->

<svg
   width="800mm"
   height="600mm"
   viewBox="0 0 800 600"
   version="1.1"
   id="svg1"
   inkscape:export-filename="비트맵.png"
   inkscape:export-xdpi="96"
   inkscape:export-ydpi="96"
   sodipodi:docname="map.svg"
   inkscape:version="1.3.2 (091e20e, 2023-11-25, custom)"
   xml:space="preserve"
   xmlns:inkscape="http://www.inkscape.org/namespaces/inkscape"
   xmlns:sodipodi="http://sodipodi.sourceforge.net/DTD/sodipodi-0.dtd"
   xmlns="http://www.w3.org/2000/svg"
   xmlns:svg="http://www.w3.org/2000/svg"><sodipodi:namedview
   id="namedview1"
   pagecolor="#ffffff"
   bordercolor="#000000"
   borderopacity="0.25"
   inkscape:showpageshadow="2"
   inkscape:pageopacity="0.0"
   inkscape:pagecheckerboard="0"
   inkscape:deskcolor="#d1d1d1"
   inkscape:document-units="mm"
   inkscape:zoom="0.0625"
   inkscape:cx="-8"
   inkscape:cy="744"
   inkscape:window-width="1920"
   inkscape:window-height="1009"
   inkscape:window-x="-8"
   inkscape:window-y="-8"
   inkscape:window-maximized="1"
   inkscape:current-layer="g1" /><defs
   id="defs1" /><g
   inkscape:label="Layer 1"
   inkscape:groupmode="layer"
   id="g1">
 
     
     
     
     
     <rect
   style="fill:#29bdd6;fill-opacity:0.498039;stroke:#738823;stroke-width:0.450553"
   id="rect1"
   width="33.549446"
   height="33.549446"
   x="-15.278005"
   y="-16.026373"
   ry="9.3244314"
   inkscape:label="ship" />
   <g
   id="g5"
   transform="matrix(3.0044739,0,0,4.0474051,-367.93695,-44.890777)"><path
   style="fill:#29bdd6;fill-opacity:0.498039;stroke:#738823;stroke-width:0.781"
   d="m 87.57708,-297.92083 -111.389579,61.64792 32.2791653,115.8875 228.0708237,-16.66875 19.31458,-121.97291 z"
   id="path1" />
     </g>
     <g
   id="g6"
   transform="matrix(3.0044739,0,0,4.0474051,-334.62308,-120.12295)"><path
   style="fill:#29bdd6;fill-opacity:0.498039;stroke:#738823;stroke-width:0.781"
   d="M 34.660416,-54.768747 142.875,-56.091663 144.4625,-87.57708 51.593749,-76.729163 Z"
   id="path2" />
     </g>
     <g
   id="g7"
   transform="matrix(3.0044739,0,0,4.0474051,-379.08457,-282.33028)"><path
   style="fill:#29bdd6;fill-opacity:0.498039;stroke:#738823;stroke-width:0.781"
   d="m 241.56457,-63.76458 -47.62499,26.193747 7.67291,50.799999 64.02917,-11.1124994 5.55625,-46.5666656 z"
   id="path3" />
     </g>
     <g
   id="g9"
   transform="matrix(3.0044739,0,0,4.0474051,-499.19327,-148.11276)"><path
   style="fill:#29bdd6;fill-opacity:0.498039;stroke:#738823;stroke-width:0.781"
   d="m 374.91458,-115.8875 -30.42708,38.893754 16.93333,41.274996 44.18541,-23.812497 z"
   id="path4" />
     </g>
     <g
   id="g8"
   transform="matrix(3.0044739,0,0,4.0474051,-352.49156,-69.31219)"><path
   style="fill:#29bdd6;fill-opacity:0.498039;stroke:#738823;stroke-width:0.781"
   d="m 285.22083,-226.48333 98.16042,-27.78124 47.88958,65.35208 -138.64167,51.85833 -29.36875,-22.225 z"
   id="path5" />
     </g>
     
     <g
   id="g12"><path
   style="fill:#29bdd6;fill-opacity:0.498039;stroke:#738823;stroke-width:0.781"
   d="M 24.695704,933.19827 -36.66938,603.17388 32.927606,521.60322 297.84516,425.06546 h 130.21372 l 26.1924,35.17267 5.98683,168.3798 -151.16762,341.24974 z"
   id="path6" />
     </g>
     <g
   id="g11"><path
   style="fill:#29bdd6;fill-opacity:0.498039;stroke:#738823;stroke-width:0.781"
   d="m 407.10495,329.27606 v 0 l 48.64304,-65.10686 86.06081,9.72861 14.96708,50.88812 -60.61673,43.40456 h -47.14634 z"
   id="path7" />
     </g>
     <g
   id="g10"
   transform="translate(61.383333,-8.4666667)"><path
   style="fill:#29bdd6;fill-opacity:0.498039;stroke:#738823;stroke-width:0.781"
   d="M 22.45064,358.46188 62.861792,338.25631 101.02788,362.95202 70.345338,408.60164 43.404569,398.12469 Z"
   id="path8" />
     </g>
     <g
   id="g13"
   transform="translate(222.25,122.76667)"><path
   style="fill:#29bdd6;fill-opacity:0.498039;stroke:#738823;stroke-width:0.781"
   d="m 1022.2525,333.76618 -71.84206,135.45219 22.45064,335.26291 74.83542,180.35346 109.2598,3.74177 105.518,-200.55904 -3.7418,-273.89782 -107.0147,-159.39953 z"
   id="path12" />
     </g>
     <g
   id="g14"
   transform="translate(332.42681,12.080043)"><path
   style="fill:#29bdd6;fill-opacity:0.498039;stroke:#738823;stroke-width:0.781"
   d="m 1548.3458,687.73793 -128.717,-5.23848 -34.4243,173.61828 104.7696,157.15447 150.4193,-62.86176 15.7155,-147.42588 z"
   id="path13" />
     </g>
     <g
   id="g15"
   transform="translate(275.16667,12.7)"><path
   style="fill:#29bdd6;fill-opacity:0.498039;stroke:#738823;stroke-width:0.781"
   d="m 1198.0333,-122.76667 330.2,-88.89999 L 1805.5166,-139.7 1769.5333,2.1166666 1424.5166,107.95 1151.4667,38.1 Z"
   id="path14" />
     </g>
     <g
   id="g16"
   transform="translate(281.51667,29.633334)"><path
   style="fill:#29bdd6;fill-opacity:0.498039;stroke:#738823;stroke-width:0.781"
   d="m 1079.5,-817.03332 264.5833,-162.98333 349.25,12.7 55.0333,162.98333 -148.1666,146.04999 -599.0167,-29.63333 z"
   id="path15" />
     </g>
     <g
   id="g17"
   transform="translate(-52.916666,31.75)"><path
   style="fill:#29bdd6;fill-opacity:0.498039;stroke:#738823;stroke-width:0.781"
   d="m -711.19999,-78.316666 61.38333,2.116667 63.5,137.583332 46.56667,237.066667 38.1,334.43333 -91.01667,537.63337 -285.75,4.2333 -116.41666,-245.53335 -38.09998,-482.59999 215.89998,-406.399994 z"
   id="path16" />
     </g>
     <g
   id="g18"><path
   style="fill:#29bdd6;fill-opacity:0.498039;stroke:#738823;stroke-width:0.781"
   d="m -426.50833,397.93333 171.45,-76.2 112.18333,43.39167 -120.65,114.29999 -123.825,-24.34166 z"
   id="path17" />
     </g>
     <g
   id="g19"><path
   style="fill:#29bdd6;fill-opacity:0.498039;stroke:#738823;stroke-width:0.781"
   d="m -1363.1333,844.54999 -8.4667,-3.175 -164.0416,173.56671 105.8333,188.3833 331.2583,-37.0417 20.1083,-175.68331 -127,-117.475 z"
   id="path18" />
     </g>
     <g
   id="g20"
   transform="translate(0,-114.3)"><path
   style="fill:#29bdd6;fill-opacity:0.498039;stroke:#738823;stroke-width:0.781"
   d="m -2074.4391,227.49982 230.4932,-148.174224 324.7859,127.220294 -157.1545,246.95703 -315.8056,32.92761 z"
   id="path19" />
     </g>
     <g
   id="g21"><path
   style="fill:#29bdd6;fill-opacity:0.498039;stroke:#738823;stroke-width:0.781"
   d="m -2057.9753,-502.89433 116.7433,73.33874 462.4832,-8.98025 142.1873,-139.19395 13.4704,-146.67754 -173.6182,-110.75649 -377.1708,167.63146 z"
   id="path20" />
     </g>
     </g>
     </svg>
