<?xml version="1.0" encoding="UTF-8" standalone="no"?>
<!-- Created with Inkscape (http://www.inkscape.org/) -->

<svg
   width="800mm"
   height="600mm"
   viewBox="0 0 800 600"
   version="1.1"
   id="svg1"
   inkscape:export-filename="비트맵.png"
   inkscape:export-xdpi="96"
   inkscape:export-ydpi="96"
   sodipodi:docname="map2.svg"
   inkscape:version="1.3.2 (091e20e, 2023-11-25, custom)"
   xml:space="preserve"
   xmlns:inkscape="http://www.inkscape.org/namespaces/inkscape"
   xmlns:sodipodi="http://sodipodi.sourceforge.net/DTD/sodipodi-0.dtd"
   xmlns="http://www.w3.org/2000/svg"
   xmlns:svg="http://www.w3.org/2000/svg"><sodipodi:namedview
   id="namedview1"
   pagecolor="#ffffff"
   bordercolor="#000000"
   borderopacity="0.25"
   inkscape:showpageshadow="2"
   inkscape:pageopacity="0.0"
   inkscape:pagecheckerboard="0"
   inkscape:deskcolor="#d1d1d1"
   inkscape:document-units="mm"
   inkscape:zoom="0.0625"
   inkscape:cx="-3848"
   inkscape:cy="760"
   inkscape:window-width="2880"
   inkscape:window-height="1514"
   inkscape:window-x="-11"
   inkscape:window-y="-11"
   inkscape:window-maximized="1"
   inkscape:current-layer="g1" /><defs
   id="defs1" /><g
   inkscape:label="Layer 1"
   inkscape:groupmode="layer"
   id="g1">
 
     
     
     
     
     <rect
   style="fill:#29bdd6;fill-opacity:0.498039;stroke:#738823;stroke-width:0.450553"
   id="rect1"
   width="33.549446"
   height="33.549446"
   x="-15.278005"
   y="-16.026373"
   ry="9.3244314"
   inkscape:label="ship" />
   <g
   id="g5"
   transform="matrix(1.9216553,0,0,2.3245935,-144.54019,-110.03927)"><path
   style="fill:#29bdd6;fill-opacity:0.498039;stroke:#738823;stroke-width:0.781"
   d="m 87.57708,-297.92083 -111.389579,61.64792 32.2791653,115.8875 228.0708237,-16.66875 19.31458,-121.97291 z"
   id="path1" />
     </g>
     <g
   id="g6"
   transform="matrix(1.9216553,0,0,2.3245935,-134.06323,-126.50307)"><path
   style="fill:#29bdd6;fill-opacity:0.498039;stroke:#738823;stroke-width:0.781"
   d="M 34.660416,-54.768747 142.875,-56.091663 144.4625,-87.57708 51.593749,-76.729163 Z"
   id="path2" />
     </g>
     <g
   id="g7"
   transform="matrix(1.9216553,0,0,2.3245935,-162.50071,-195.3517)"><path
   style="fill:#29bdd6;fill-opacity:0.498039;stroke:#738823;stroke-width:0.781"
   d="m 241.56457,-63.76458 -47.62499,26.193747 7.67291,50.799999 64.02917,-11.1124994 5.55625,-46.5666656 z"
   id="path3" />
     </g>
     <g
   id="g9"
   transform="matrix(1.9216553,0,0,2.3245935,-201.41515,-98.813947)"><path
   style="fill:#29bdd6;fill-opacity:0.498039;stroke:#738823;stroke-width:0.781"
   d="m 374.91458,-115.8875 -30.42708,38.893754 16.93333,41.274996 44.18541,-23.812497 z"
   id="path4" />
     </g>
     <g
   id="g8"
   transform="matrix(1.9216553,0,0,2.3245935,-104.8774,-107.04585)"><path
   style="fill:#29bdd6;fill-opacity:0.498039;stroke:#738823;stroke-width:0.781"
   d="m 285.22083,-226.48333 98.16042,-27.78124 47.88958,65.35208 -138.64167,51.85833 -29.36875,-22.225 z"
   id="path5" />
     </g>
     
     
     
     
     
     
     
     
     
     
     
     
     
     </g>
     </svg>
