<?xml version="1.0" encoding="UTF-8" standalone="no"?>
<!-- Created with Inkscape (http://www.inkscape.org/) -->

<svg
   width="800mm"
   height="600mm"
   viewBox="0 0 800 600"
   version="1.1"
   id="svg1"
   inkscape:export-filename="비트맵.png"
   inkscape:export-xdpi="96"
   inkscape:export-ydpi="96"
   sodipodi:docname="map3.svg"
   inkscape:version="1.3.2 (091e20e, 2023-11-25, custom)"
   xml:space="preserve"
   xmlns:inkscape="http://www.inkscape.org/namespaces/inkscape"
   xmlns:sodipodi="http://sodipodi.sourceforge.net/DTD/sodipodi-0.dtd"
   xmlns="http://www.w3.org/2000/svg"
   xmlns:svg="http://www.w3.org/2000/svg"><sodipodi:namedview
   id="namedview1"
   pagecolor="#ffffff"
   bordercolor="#000000"
   borderopacity="0.25"
   inkscape:showpageshadow="2"
   inkscape:pageopacity="0.0"
   inkscape:pagecheckerboard="0"
   inkscape:deskcolor="#d1d1d1"
   inkscape:document-units="mm"
   inkscape:zoom="0.0625"
   inkscape:cx="-272"
   inkscape:cy="-920"
   inkscape:window-width="1920"
   inkscape:window-height="1009"
   inkscape:window-x="-8"
   inkscape:window-y="-8"
   inkscape:window-maximized="1"
   inkscape:current-layer="g1" /><defs
   id="defs1" /><g
   inkscape:label="Layer 1"
   inkscape:groupmode="layer"
   id="g1">
 
     
     
     
     
     <rect
   style="fill:#29bdd6;fill-opacity:0.498039;stroke:#738823;stroke-width:0.450553"
   id="rect1"
   width="33.549446"
   height="33.549446"
   x="-1256.0275"
   y="-438.81723"
   ry="9.3244314"
   inkscape:label="ship" />
   
     
     
     
     
     
     <g
   id="g12"><path
   style="fill:#29bdd6;fill-opacity:0.498039;stroke:#738823;stroke-width:0.781"
   d="M 24.695704,933.19827 -36.66938,603.17388 32.927606,521.60322 297.84516,425.06546 h 130.21372 l 26.1924,35.17267 5.98683,168.3798 -151.16762,341.24974 z"
   id="path6" />
     </g>
     <g
   id="g7"><g
     id="g11"><path
   style="fill:#29bdd6;fill-opacity:0.498039;stroke:#738823;stroke-width:0.781"
   d="m 407.10495,329.27606 v 0 l 48.64304,-65.10686 86.06081,9.72861 14.96708,50.88812 -60.61673,43.40456 h -47.14634 z"
   id="path7" />
     </g></g>
     <g
   id="g6"><g
     id="g10"
     transform="translate(61.383333,-8.4666667)"><path
   style="fill:#29bdd6;fill-opacity:0.498039;stroke:#738823;stroke-width:0.781"
   d="M 22.45064,358.46188 62.861792,338.25631 101.02788,362.95202 70.345338,408.60164 43.404569,398.12469 Z"
   id="path8" />
     </g></g>
     <g
   id="g13"
   transform="translate(222.25,122.76667)"><path
   style="fill:#29bdd6;fill-opacity:0.498039;stroke:#738823;stroke-width:0.781"
   d="m 1022.2525,333.76618 -71.84206,135.45219 22.45064,335.26291 74.83542,180.35346 109.2598,3.74177 105.518,-200.55904 -3.7418,-273.89782 -107.0147,-159.39953 z"
   id="path12" />
     </g>
     <g
   id="g14"
   transform="translate(332.42681,12.080043)"><path
   style="fill:#29bdd6;fill-opacity:0.498039;stroke:#738823;stroke-width:0.781"
   d="m 1548.3458,687.73793 -128.717,-5.23848 -34.4243,173.61828 104.7696,157.15447 150.4193,-62.86176 15.7155,-147.42588 z"
   id="path13" />
     </g>
     <g
   id="g15"
   transform="translate(275.16667,12.7)"><path
   style="fill:#29bdd6;fill-opacity:0.498039;stroke:#738823;stroke-width:0.781"
   d="m 1198.0333,-122.76667 330.2,-88.89999 L 1805.5166,-139.7 1769.5333,2.1166666 1424.5166,107.95 1151.4667,38.1 Z"
   id="path14" />
     </g>
     
     <g
   id="g17"
   transform="translate(-52.916666,31.75)"><path
   style="fill:#29bdd6;fill-opacity:0.498039;stroke:#738823;stroke-width:0.781"
   d="m -711.19999,-78.316666 61.38333,2.116667 63.5,137.583332 46.56667,237.066667 38.1,334.43333 -91.01667,537.63337 -285.75,4.2333 -116.41666,-245.53335 -38.09998,-482.59999 215.89998,-406.399994 z"
   id="path16" />
     </g>
     <g
   id="g5"><g
     id="g18"><path
   style="fill:#29bdd6;fill-opacity:0.498039;stroke:#738823;stroke-width:0.781"
   d="m -426.50833,397.93333 171.45,-76.2 112.18333,43.39167 -120.65,114.29999 -123.825,-24.34166 z"
   id="path17" />
     </g>
     </g>
     <g
   id="g19"><path
   style="fill:#29bdd6;fill-opacity:0.498039;stroke:#738823;stroke-width:0.781"
   d="m -1363.1333,844.54999 -8.4667,-3.175 -164.0416,173.56671 105.8333,188.3833 331.2583,-37.0417 20.1083,-175.68331 -127,-117.475 z"
   id="path18" />
     </g>
     <g
   id="g20"
   transform="translate(0,-114.3)"><path
   style="fill:#29bdd6;fill-opacity:0.498039;stroke:#738823;stroke-width:0.781"
   d="m -2074.4391,227.49982 230.4932,-148.174224 324.7859,127.220294 -157.1545,246.95703 -315.8056,32.92761 z"
   id="path19" />
     </g>
     <g
   id="g21"><path
   style="fill:#29bdd6;fill-opacity:0.498039;stroke:#738823;stroke-width:0.781"
   d="m -2057.9753,-502.89433 116.7433,73.33874 462.4832,-8.98025 142.1873,-139.19395 13.4704,-146.67754 -173.6182,-110.75649 -377.1708,167.63146 z"
   id="path20" />
     </g>
     <g
   id="g25"><path
     style="fill:#29bdd6;fill-opacity:0.498039;stroke:#738823;stroke-width:0.781"
     d="m 1345.6247,-651.061 116.7433,73.33874 462.4832,-8.98025 142.1873,-139.19395 13.4704,-146.67754 -173.6182,-110.75649 -377.1708,167.63146 z"
     id="path9" />
     </g>
     <g
   id="g26"><path
     style="fill:#29bdd6;fill-opacity:0.498039;stroke:#738823;stroke-width:0.496629"
     d="M 52.725051,-1278.6151 -156.79408,-1105.1304 -53.412933,-748.96086 280.16358,-641.19 601.33436,-889.58869 633.03791,-1210.2727 Z"
     id="path1" />
     </g>
     <g
   id="g8"><path
     style="fill:#29bdd6;fill-opacity:0.498039;stroke:#738823;stroke-width:0.781"
     d="m -133.25876,-503.57218 -46.56666,148.16667 -146.05,-4.23334 -93.13334,-150.28333 78.31668,-101.6 152.39999,-14.81666 z"
     id="path2" />
     </g>
     <g
   id="g9"><path
     style="fill:#29bdd6;fill-opacity:0.498039;stroke:#738823;stroke-width:0.461342"
     d="m 83.431843,-604.48549 -27.3096,88.15641 -85.65287,-2.51876 -54.61921,-89.41578 45.9298,-60.45011 89.37689,-8.81563 z"
     id="path3" />
     </g>
     <g
   id="g4"><path
     style="fill:#29bdd6;fill-opacity:0.498039;stroke:#738823;stroke-width:0.504206"
     d="m -1895.4697,-23.502841 -74.2011,54.6024 -87.5045,-58.265754 -10.0975,-109.388825 79.0883,-19.59455 97.2653,51.38496 z"
     id="path4" />
     </g>
     <g
   id="g16"><path
     style="fill:#29bdd6;fill-opacity:0.498039;stroke:#738823;stroke-width:0.544346"
     d="m -155.52404,-985.07273 -31.43356,106.63027 -98.58702,-3.04659 -62.86708,-108.15355 52.8655,-73.1179 102.87338,-10.663 z"
     id="path5" />
     </g>
     <g
   id="g22"><path
     style="fill:#29bdd6;fill-opacity:0.498039;stroke:#738823;stroke-width:0.781"
     d="m 1200.2461,-924.0736 171.45,-76.2 112.1833,43.39167 -120.65,114.29999 -123.825,-24.34166 z"
     id="path10" />
     </g>
     <g
   id="g23"><path
     style="fill:#29bdd6;fill-opacity:0.498039;stroke:#738823;stroke-width:0.781"
     d="m 1431.5716,-1012.6906 v 0 l 48.6431,-65.1069 86.0608,9.7286 14.967,50.8882 -60.6167,43.40453 h -47.1463 z"
     id="path21" />
     </g>
     <g
   id="g24"><path
     style="fill:#29bdd6;fill-opacity:0.498039;stroke:#738823;stroke-width:0.781"
     d="m 1586.6673,-1072.4048 40.4112,-20.2055 38.166,24.6957 -30.6825,45.6496 -26.9408,-10.477 z"
     id="path22" />
     </g>
     <g
   id="g3"><path
     style="fill:#29bdd6;fill-opacity:0.498039;stroke:#738823;stroke-width:0.781"
     d="m -2040.8189,-281.12682 130.2382,-135.05386 120.2668,-1.9551 -68.8428,151.26657 -123.8948,23.98394 z"
     id="path23" />
     </g>
     <g
   id="g2"><path
     style="fill:#29bdd6;fill-opacity:0.498039;stroke:#738823;stroke-width:0.544346"
     d="m -1591.4795,-932.95434 18.0321,109.6947 -90.1137,40.10244 -103.6234,-70.08316 15.8345,-88.82711 88.0159,-54.31248 z"
     id="path24" />
     </g>
   </g>
     </svg>
