<?xml version="1.0" encoding="UTF-8" standalone="no"?>
<!-- Created with Inkscape (http://www.inkscape.org/) -->

<svg
   width="800mm"
   height="600mm"
   viewBox="0 0 800 600"
   version="1.1"
   id="svg1"
   inkscape:export-filename="..\..\..\..\..\..\Desktop\zz.png"
   inkscape:export-xdpi="96"
   inkscape:export-ydpi="96"
   sodipodi:docname="OurFirstMap2.svg"
   inkscape:version="1.3.2 (091e20e, 2023-11-25, custom)"
   xml:space="preserve"
   xmlns:inkscape="http://www.inkscape.org/namespaces/inkscape"
   xmlns:sodipodi="http://sodipodi.sourceforge.net/DTD/sodipodi-0.dtd"
   xmlns="http://www.w3.org/2000/svg"
   xmlns:svg="http://www.w3.org/2000/svg"><sodipodi:namedview
   id="namedview1"
   pagecolor="#ffffff"
   bordercolor="#000000"
   borderopacity="0.25"
   inkscape:showpageshadow="2"
   inkscape:pageopacity="0.0"
   inkscape:pagecheckerboard="0"
   inkscape:deskcolor="#d1d1d1"
   inkscape:document-units="mm"
   inkscape:zoom="0.015625"
   inkscape:cx="-8416"
   inkscape:cy="2208"
   inkscape:window-width="1920"
   inkscape:window-height="1129"
   inkscape:window-x="-8"
   inkscape:window-y="-8"
   inkscape:window-maximized="1"
   inkscape:current-layer="g1" /><defs
   id="defs1" /><g
   inkscape:label="Layer 1"
   inkscape:groupmode="layer">
 
     
     
     
     
     
   
     
     
     
     
    <rect
   style="fill:#29bdd6;fill-opacity:0.498039;stroke:#738823;stroke-width:0.450553"
   id="rect1"
   width="33.549446"
   height="33.549446"
   x="-1585.0963"
   y="-160.50345"
   ry="9.3244314"
   inkscape:label="ship" />
   
     
     
     
     
     
     
     
     
     
     
     
     
     
     
     
     
     
     
     
     
     
     
     
     
     
     
     
     
     
     
     
     
     
     
   
     
     
     
     
     
     
     
     
     
     
     
     
     
     
     
     
     
     
     
     
     
     
     
     
     
     
     
     
     
     
     
     
   
   
   
   
   
   
   <g
   id="g2"
   transform="translate(6307.6666,1528.2333)"><path
   style="fill:#d62969;fill-opacity:0.498039;stroke:#738823;stroke-width:0.781"
   d="m -5787.4958,-817.03332 -51.3291,43.92083 1.5875,20.6375 20.6375,92.60416 45.5083,24.87084 123.2958,16.93333 78.8459,-39.15833 -0.5292,-29.63333 -64.0292,-12.17084 -31.2208,4.7625 -53.4458,0.52917 -22.7542,-14.2875 -8.9958,-37.04167 21.6958,-39.6875 47.625,-26.9875 33.3375,1.5875 21.6958,14.2875 4.7625,23.8125 24.3417,-1.5875 10.5833,-25.92916 -19.05,-55.5625 -55.5625,-41.275 -49.7416,-12.17084 -34.3959,32.27917 -34.925,18.52083 z"
   id="path5" />
     </g>
     <g
   id="g4"
   transform="translate(6307.6666,1528.2333)"><path
   style="fill:#d62969;fill-opacity:0.498039;stroke:#738823;stroke-width:0.781"
   d="m -5642.5941,-1190.6323 -66.6035,-3.7418 -11.2255,3.7418 -14.2187,33.676 -2.9935,45.6496 4.4902,34.4243 50.1396,20.954 54.6302,1.4967 65.855,-17.2122 46.3981,5.9869 10.477,33.6759 14.967,23.9474 3.7417,28.43744 7.4837,17.96053 5.9868,6.73518 2.9935,-3.74177 8.2317,-50.88808 23.1992,-22.4507 26.9406,-9.7286 2.9935,20.2056 14.2187,-2.9934 5.9868,-18.7089 11.9737,-16.4638 76.3323,-2.2451 62.8618,-7.4835 30.6824,-62.1135 27.6892,-50.8881 15.7154,-100.2795 -48.6431,-48.643 -50.8881,-17.9606 -36.6694,22.4507 h -47.8946 l -3.7417,-11.2253 -50.1399,27.6891 -33.6759,23.199 -17.2122,14.2187 -92.796,14.9671 -25.4439,16.4638 -21.7025,35.1727 -29.9341,15.7154 z"
   id="path6" />
     </g>
     <g
   id="g3"
   transform="translate(6307.6666,1528.2333)"><path
   style="fill:#d62969;fill-opacity:0.498039;stroke:#738823;stroke-width:0.781"
   d="m -5932.9557,-1341.0516 -68.8486,56.1266 -2.9935,32.1793 26.1924,23.9473 42.6562,0.7484 35.9211,31.4309 -8.9805,37.4177 -12.7219,15.7155 -33.6759,1.4967 -20.2057,-9.7286 -13.4702,0.7483 -4.4903,26.9408 30.6827,63.6101 18.7087,38.1661 56.1266,2.2451 1.4967,12.722 20.2057,4.4902 5.2385,-20.954 32.1792,-32.1792 41.1596,-20.954 23.9472,-48.643 1.4967,-73.3388 -50.8881,-11.2253 -23.1989,-65.1068 -51.6366,-5.9869 -14.2187,-52.3848 z"
   id="path7" />
     </g>
     </g>
     </svg>
