<?xml version="1.0" encoding="UTF-8" standalone="no"?>
<!-- Created with Inkscape (http://www.inkscape.org/) -->

<svg
   width="800mm"
   height="600mm"
   viewBox="0 0 800 600"
   version="1.1"
   id="svg1"
   inkscape:export-filename="비트맵.svg"
   inkscape:export-xdpi="96"
   inkscape:export-ydpi="96"
   sodipodi:docname="s.svg"
   inkscape:version="1.3.2 (091e20e, 2023-11-25, custom)"
   xml:space="preserve"
   xmlns:inkscape="http://www.inkscape.org/namespaces/inkscape"
   xmlns:sodipodi="http://sodipodi.sourceforge.net/DTD/sodipodi-0.dtd"
   xmlns="http://www.w3.org/2000/svg"
   xmlns:svg="http://www.w3.org/2000/svg"><sodipodi:namedview
   id="namedview1"
   pagecolor="#ffffff"
   bordercolor="#000000"
   borderopacity="0.25"
   inkscape:showpageshadow="2"
   inkscape:pageopacity="0.0"
   inkscape:pagecheckerboard="0"
   inkscape:deskcolor="#d1d1d1"
   inkscape:document-units="mm"
   inkscape:zoom="0.028284271"
   inkscape:cx="5091.1688"
   inkscape:cy="17.67767"
   inkscape:window-width="2880"
   inkscape:window-height="1514"
   inkscape:window-x="157"
   inkscape:window-y="-11"
   inkscape:window-maximized="1"
   inkscape:current-layer="g1" /><defs
   id="defs1" /><g
   inkscape:label="Layer 1"
   inkscape:groupmode="layer">  
   
   
     
     
     
     
     
     
     
   <rect
   style="fill:#28bed7;stroke:#738823;stroke-width:0.781"
   id="rect12"
   width="40"
   height="40"
   x="94.441223"
   y="-2858.6267"
   ry="13.727403"
   inkscape:label="ship" />
   <g
   id="g11"
   transform="matrix(1.3135973,0,0,0.35766773,-312.56222,-945.4467)"><path
   style="fill:#28bed7;stroke:#738823;stroke-width:1.56818"
   d="m -37.636167,-1955.8745 3.3317,1575.15336 1219.395667,-9.9276 23.3218,-1575.15336 z"
   id="path14" />
     </g>
   <g
   id="g12"
   transform="matrix(1.3265871,0,0,0.5125514,-696.30362,-1261.5104)"><path
   style="fill:#28bed7;stroke:#738823;stroke-width:1.16154"
   d="m 2131.7428,-2581.5758 2.9261,983.9761 1070.9152,-6.2016 20.482,-983.9762 z"
   id="path15" />
     </g>
   <g
   id="g9"
   transform="translate(-767.29167,-19.84375)"><path
   style="fill:#28bed7;stroke:#738823;stroke-width:3.15233"
   d="m -6401.0179,-3863.9137 2.6781,7918.2937 980.1875,-49.9057 18.7467,-7918.294 z"
   id="path17" />
     </g>
   <g
   id="g2"
   transform="translate(873.12501,-33.072916)"><path
   style="fill:#28bed7;stroke:#738823;stroke-width:3.28092"
   d="m 5531.7541,-4036.2431 2.9254,7852.4332 1070.6856,-49.4907 20.4776,-7852.4335 z"
   id="path18" />
     </g>
   <g
   id="g3"
   transform="matrix(0.49078853,0,0,1.1818237,3649.196,-305.55185)"><path
   style="fill:#28bed7;stroke:#738823;stroke-width:2.53581"
   d="m 4540.1453,-3179.96 2.9931,4584.6886 1095.4484,-28.8954 20.9512,-4584.689 z"
   id="path20" />
     </g>
     <g
   id="g6"
   transform="matrix(0.99988919,0,0,1.2323083,748.84283,6.5897901)"><path
   style="fill:#28bed7;stroke:#738823;stroke-width:2.50888"
   d="m 3137.8308,1089.8601 6.7779,1981.7684 2480.7251,-12.4903 47.4457,-1981.7686 z"
   id="path21" />
     </g>
     <g
   id="g4"
   transform="matrix(0.99988703,0,0,1.2390825,327.52623,76.024258)"><path
   style="fill:#28bed7;stroke:#738823;stroke-width:2.50888"
   d="m -195.9192,1142.7768 6.7779,1981.7684 2480.7251,-12.4903 47.4457,-1981.7686 z"
   id="path22" />
     </g>
     <g
   id="g5"
   transform="matrix(1.3204654,0,0,0.2519842,1248.6625,3135.8456)"><path
   style="fill:#28bed7;stroke:#738823;stroke-width:2.50484"
   d="m -3212.1673,91.564454 4.3018,3112.360546 1574.4957,-19.6159 30.1134,-3112.360935 z"
   id="path23" />
     </g>
     <g
   id="g8"
   transform="matrix(0.25811918,0,0,1.3012305,-4699.4712,1141.9675)"><path
   style="fill:#28bed7;stroke:#738823;stroke-width:1.12526"
   d="m -5752.8637,-1962.2437 4.4824,602.8057 1640.5892,-3.7992 31.3775,-602.8058 z"
   id="path24" />
     </g>
     <g
   id="g7"
   transform="matrix(1.000386,0,0,0.42636918,-551.01952,189.83374)"><path
   style="fill:#28bed7;stroke:#738823;stroke-width:1.84855"
   d="m -5818.642,-209.18105 4.4805,1627.51395 1639.8698,-10.2575 31.3638,-1627.51418 z"
   id="path25" />
     </g>
     
   <g
   id="g2-2-2"
   transform="translate(-352.23095,3901.3479)"
   inkscape:label="g2-2-2">
   <path
   style="fill:#c223bd;stroke:#000000;stroke-width:0;paint-order:fill markers stroke"
   d="m 464.41426,-235.73127 -110.06664,-65.61666 -2.11667,169.33331 162.98331,-33.86666 z"
   id="path17-7-1" />
     <path
   style="fill:#c223bd;stroke:#000000;stroke-width:0;paint-order:fill markers stroke"
   d="m 515.13982,-166.24133 -74.08333,14.81667 52.91666,141.8166592 z"
   id="path1-7-04" />
     </g>
     <g
   id="g2-1-2"
   transform="translate(6047.7691,301.34793)"
   inkscape:label="g2-1-2">
   <path
   style="fill:#c223bd;stroke:#000000;stroke-width:0;paint-order:fill markers stroke"
   d="m 464.41426,-235.73127 -110.06664,-65.61666 -2.11667,169.33331 162.98331,-33.86666 z"
   id="path17-7-1-9" />
     <path
   style="fill:#c223bd;stroke:#000000;stroke-width:0;paint-order:fill markers stroke"
   d="m 515.13982,-166.24133 -74.08333,14.81667 52.91666,141.8166592 z"
   id="path1-7-04-18" />
     </g>
     <g
   id="g2-2-1"
   transform="translate(-352.23095,-3298.6522)"
   inkscape:label="g2-2-1">
   <path
   style="fill:#c223bd;stroke:#000000;stroke-width:0;paint-order:fill markers stroke"
   d="m 464.41426,-235.73127 -110.06664,-65.61666 -2.11667,169.33331 162.98331,-33.86666 z"
   id="path17-7-1-0" />
     <path
   style="fill:#c223bd;stroke:#000000;stroke-width:0;paint-order:fill markers stroke"
   d="m 515.13982,-166.24133 -74.08333,14.81667 52.91666,141.8166592 z"
   id="path1-7-04-1" />
     </g>
     <g
   id="g3-1-1"
   transform="translate(-6863.9798,-42.212985)"
   inkscape:label="g3-1-1">
   <path
   style="fill:#c223bd;stroke:#000000;stroke-width:0;paint-order:fill markers stroke"
   d="M 670.52573,42.27102 463.97986,60.231532 532.82849,182.96169 Z"
   id="path2-9-46-0"
   inkscape:label="path2-9-46-0" />
     <path
   style="fill:#c223bd;stroke:#000000;stroke-width:0;paint-order:fill markers stroke"
   d="m 669.65165,42.212986 -137.94353,140.142284 123.5066,47.8857 z"
   id="path2-6-4-4-0"
   inkscape:label="path2-6-4-4-0" />
     </g>
     
   
   
   
   
   
   <g
   id="g13"
   transform="matrix(1.0001439,0,0,0.62257424,-439.98189,-547.72785)"><path
   style="fill:#28bed7;stroke:#738823;stroke-width:1.12526"
   d="m -5752.8637,-1962.2437 4.4824,602.8057 1640.5892,-3.7992 31.3775,-602.8058 z"
   id="path1" />
     </g>
     <g
   id="g14"
   transform="matrix(0.50089298,0,0,0.92343802,-2442.2621,-512.85245)"><path
   style="fill:#28bed7;stroke:#738823;stroke-width:1.12526"
   d="m -5752.8637,-1962.2437 4.4824,602.8057 1640.5892,-3.7992 31.3775,-602.8058 z"
   id="path13" />
     </g>
     <g
   id="g16"
   transform="matrix(0.50089298,0,0,0.92343802,-2100.8253,-1041.378)">
   <path
   style="fill:#28bed7;stroke:#738823;stroke-width:1.12526"
   d="m -5752.8637,-1962.2437 4.4824,602.8057 1640.5892,-3.7992 31.3775,-602.8058 z"
   id="path16" />
     </g>
     <g
   id="g26"
   transform="matrix(0.62380388,0,0,0.54075473,-1769.5422,-589.67129)">
   <path
   style="fill:#28bed7;stroke:#738823;stroke-width:1.84855"
   d="m -5818.642,-209.18105 4.4805,1627.51395 1639.8698,-10.2575 31.3638,-1627.51418 z"
   id="path26" />
     </g>
     <g
   id="g27"
   transform="matrix(0.33384119,0,0,0.29543468,-2825.5727,-1116.1341)">
   <path
   style="fill:#28bed7;stroke:#738823;stroke-width:1.84855"
   d="m -5818.642,-209.18105 4.4805,1627.51395 1639.8698,-10.2575 31.3638,-1627.51418 z"
   id="path27" />
     </g>
     <g
   id="g28"
   transform="matrix(0.33384119,0,0,0.29543468,-3372.8071,637.8222)">
   <path
   style="fill:#28bed7;stroke:#738823;stroke-width:1.84855"
   d="m -5818.642,-209.18105 4.4805,1627.51395 1639.8698,-10.2575 31.3638,-1627.51418 z"
   id="path28" />
     </g>
     <g
   id="g29"
   transform="matrix(1.0005902,0,0,0.38951438,-3102.0952,2753.4918)">
   <path
   style="fill:#28bed7;stroke:#738823;stroke-width:2.50484"
   d="m -3212.1673,91.564454 4.3018,3112.360546 1574.4957,-19.6159 30.1134,-3112.360935 z"
   id="path29" />
     </g>
     <g
   id="g30"
   transform="matrix(0.48679651,0,0,0.22838664,-3289.1245,3265.3013)">
   <path
   style="fill:#28bed7;stroke:#738823;stroke-width:2.50484"
   d="m -3212.1673,91.564454 4.3018,3112.360546 1574.4957,-19.6159 30.1134,-3112.360935 z"
   id="path30" />
     </g>
     <g
   id="g31"
   transform="matrix(0.93137856,0,0,0.26998421,363.30493,2334.6219)">
   <path
   style="fill:#28bed7;stroke:#738823;stroke-width:2.50484"
   d="m -3212.1673,91.564454 4.3018,3112.360546 1574.4957,-19.6159 30.1134,-3112.360935 z"
   id="path31" />
     </g>
     <g
   id="g32"
   transform="matrix(0.33061478,0,0,0.05956471,-234.24311,2358.8864)">
   <path
   style="fill:#28bed7;stroke:#738823;stroke-width:2.50484"
   d="m -3212.1673,91.564454 4.3018,3112.360546 1574.4957,-19.6159 30.1134,-3112.360935 z"
   id="path32" />
     </g>
     <g
   id="g33"
   transform="matrix(0.3302591,0,0,0.40771827,-978.77693,1103.4207)">
   <path
   style="fill:#28bed7;stroke:#738823;stroke-width:2.50484"
   d="m -3212.1673,91.564454 4.3018,3112.360546 1574.4957,-19.6159 30.1134,-3112.360935 z"
   id="path33" />
     </g>
     <g
   id="g34"
   transform="matrix(0.44383525,0,0,0.14350535,-160.42315,1496.4283)">
   <path
   style="fill:#28bed7;stroke:#738823;stroke-width:2.50484"
   d="m -3212.1673,91.564454 4.3018,3112.360546 1574.4957,-19.6159 30.1134,-3112.360935 z"
   id="path34" />
     </g>
     <g
   id="g35"
   transform="matrix(0.44370596,0,0,0.25252172,-1446.9691,1568.0975)">
   <path
   style="fill:#28bed7;stroke:#738823;stroke-width:2.50484"
   d="m -3212.1673,91.564454 4.3018,3112.360546 1574.4957,-19.6159 30.1134,-3112.360935 z"
   id="path35" />
     </g>
     <g
   id="g36"
   transform="matrix(0.24331166,0,0,0.27797597,-2086.1465,850.54723)">
   <path
   style="fill:#28bed7;stroke:#738823;stroke-width:2.50484"
   d="m -3212.1673,91.564454 4.3018,3112.360546 1574.4957,-19.6159 30.1134,-3112.360935 z"
   id="path36" />
     </g>
     <g
   id="g37"
   transform="matrix(0.24331166,0,0,0.27797597,-1842.9312,36.711519)">
   <path
   style="fill:#28bed7;stroke:#738823;stroke-width:2.50484"
   d="m -3212.1673,91.564454 4.3018,3112.360546 1574.4957,-19.6159 30.1134,-3112.360935 z"
   id="path37" />
     </g>
     <g
   id="g38"
   transform="matrix(0.70859642,0,0,1.0132707,749.36177,336.37734)">
   <path
   style="fill:#28bed7;stroke:#738823;stroke-width:1.56818"
   d="m -37.636167,-1955.8745 3.3317,1575.15336 1219.395667,-9.9276 23.3218,-1575.15336 z"
   id="path38" />
     </g>
     <g
   id="g39"
   transform="matrix(0.70859642,0,0,1.0132707,-864.59656,-371.38308)">
   <path
   style="fill:#28bed7;stroke:#738823;stroke-width:1.56818"
   d="m -37.636167,-1955.8745 3.3317,1575.15336 1219.395667,-9.9276 23.3218,-1575.15336 z"
   id="path39" />
     </g>
     <g
   id="g40"
   transform="matrix(0.36912887,0,0,0.86751937,709.95887,-1319.6011)">
   <path
   style="fill:#28bed7;stroke:#738823;stroke-width:1.56818"
   d="m -37.636167,-1955.8745 3.3317,1575.15336 1219.395667,-9.9276 23.3218,-1575.15336 z"
   id="path40" />
     </g>
     <g
   id="g41"
   transform="matrix(0.46872545,0,0,1.1410555,1502.6115,721.82588)">
   <path
   style="fill:#28bed7;stroke:#738823;stroke-width:1.16154"
   d="m 2131.7428,-2581.5758 2.9261,983.9761 1070.9152,-6.2016 20.482,-983.9762 z"
   id="path41" />
     </g>
     <g
   id="g42"
   transform="matrix(0.46872545,0,0,1.1410555,2534.4865,424.16963)">
   <path
   style="fill:#28bed7;stroke:#738823;stroke-width:1.16154"
   d="m 2131.7428,-2581.5758 2.9261,983.9761 1070.9152,-6.2016 20.482,-983.9762 z"
   id="path42" />
     </g>
     <g
   id="g43"
   transform="matrix(0.82590917,0,0,0.19992877,899.62882,-609.35202)">
   <path
   style="fill:#28bed7;stroke:#738823;stroke-width:1.16154"
   d="m 2131.7428,-2581.5758 2.9261,983.9761 1070.9152,-6.2016 20.482,-983.9762 z"
   id="path43" />
     </g>
     <g
   id="g44"
   transform="matrix(1.3265871,0,0,0.5125514,-1291.6161,-1638.5416)">
   <path
   style="fill:#28bed7;stroke:#738823;stroke-width:1.16154"
   d="m 2131.7428,-2581.5758 2.9261,983.9761 1070.9152,-6.2016 20.482,-983.9762 z"
   id="path44" />
     </g>
     <g
   id="g45"
   transform="matrix(0.24043169,0,0,0.39119801,2151.6133,266.18726)">
   <path
   style="fill:#28bed7;stroke:#738823;stroke-width:2.50888"
   d="m -195.9192,1142.7768 6.7779,1981.7684 2480.7251,-12.4903 47.4457,-1981.7686 z"
   id="path45" />
     </g>
     <g
   id="g46"
   transform="matrix(0.4582626,0,0,0.14272337,800.3378,1042.6886)">
   <path
   style="fill:#28bed7;stroke:#738823;stroke-width:2.50888"
   d="m -195.9192,1142.7768 6.7779,1981.7684 2480.7251,-12.4903 47.4457,-1981.7686 z"
   id="path46" />
     </g>
     <g
   id="g47"
   transform="matrix(1.4278047,0,0,0.18874537,-1671.9977,-3521.2709)">
   <path
   style="fill:#28bed7;stroke:#738823;stroke-width:2.53581"
   d="m 4540.1453,-3179.96 2.9931,4584.6886 1095.4484,-28.8954 20.9512,-4584.689 z"
   id="path47" />
     </g>
     <g
   id="g48"
   transform="matrix(0.49353068,0,0,0.28218624,2297.5274,-2922.4876)">
   <path
   style="fill:#28bed7;stroke:#738823;stroke-width:2.53581"
   d="m 4540.1453,-3179.96 2.9931,4584.6886 1095.4484,-28.8954 20.9512,-4584.689 z"
   id="path48" />
     </g>
     <g
   id="g49"
   transform="matrix(1.1533051,0,0,0.13610508,-622.88397,-1510.7806)">
   <path
   style="fill:#28bed7;stroke:#738823;stroke-width:2.53581"
   d="m 4540.1453,-3179.96 2.9931,4584.6886 1095.4484,-28.8954 20.9512,-4584.689 z"
   id="path49" />
     </g>
     <g
   id="g50"
   transform="matrix(1.3871843,0,0,0.06509925,-1918.5305,-494.39529)">
   <path
   style="fill:#28bed7;stroke:#738823;stroke-width:2.53581"
   d="m 4540.1453,-3179.96 2.9931,4584.6886 1095.4484,-28.8954 20.9512,-4584.689 z"
   id="path50" />
     </g>
     <g
   id="g51"
   transform="matrix(1.0783699,0,0,0.11383141,-198.63124,-85.612892)">
   <path
   style="fill:#28bed7;stroke:#738823;stroke-width:2.53581"
   d="m 4540.1453,-3179.96 2.9931,4584.6886 1095.4484,-28.8954 20.9512,-4584.689 z"
   id="path51" />
     </g>
     <g
   id="g52"
   transform="matrix(0.42754605,0,0,0.28218701,3560.1273,978.3118)">
   <path
   style="fill:#28bed7;stroke:#738823;stroke-width:2.53581"
   d="m 4540.1453,-3179.96 2.9931,4584.6886 1095.4484,-28.8954 20.9512,-4584.689 z"
   id="path52" />
     </g>
     </g>
  
   </svg>
