<?xml version="1.0" encoding="UTF-8" standalone="no"?>
<!-- Created with Inkscape (http://www.inkscape.org/) -->

<svg
   width="800mm"
   height="600mm"
   viewBox="0 0 800 600"
   version="1.1"
   id="svg1"
   inkscape:export-filename="비트맵.svg"
   inkscape:export-xdpi="96"
   inkscape:export-ydpi="96"
   sodipodi:docname="Sea4.svg"
   inkscape:version="1.3.2 (091e20e, 2023-11-25, custom)"
   xml:space="preserve"
   xmlns:inkscape="http://www.inkscape.org/namespaces/inkscape"
   xmlns:sodipodi="http://sodipodi.sourceforge.net/DTD/sodipodi-0.dtd"
   xmlns="http://www.w3.org/2000/svg"
   xmlns:svg="http://www.w3.org/2000/svg"><sodipodi:namedview
   id="namedview1"
   pagecolor="#ffffff"
   bordercolor="#000000"
   borderopacity="0.25"
   inkscape:showpageshadow="2"
   inkscape:pageopacity="0.0"
   inkscape:pagecheckerboard="0"
   inkscape:deskcolor="#d1d1d1"
   inkscape:document-units="mm"
   inkscape:zoom="0.11313708"
   inkscape:cx="2395.3242"
   inkscape:cy="-1533.5378"
   inkscape:window-width="2880"
   inkscape:window-height="1514"
   inkscape:window-x="157"
   inkscape:window-y="-11"
   inkscape:window-maximized="1"
   inkscape:current-layer="g1" /><defs
   id="defs1" /><g
   inkscape:label="Layer 1"
   inkscape:groupmode="layer"
   id="g1">  
   
   
     
     
     
     
     
     
     
   
   
   
   
    
   
   <g
   id="g2-2-2"
   transform="translate(-352.23095,3901.3479)"
   inkscape:label="g2-2-2">
   <path
   style="fill:#c223bd;stroke:#000000;stroke-width:0;paint-order:fill markers stroke"
   d="m 464.41426,-235.73127 -110.06664,-65.61666 -2.11667,169.33331 162.98331,-33.86666 z"
   id="path17-7-1" />
     <path
   style="fill:#c223bd;stroke:#000000;stroke-width:0;paint-order:fill markers stroke"
   d="m 515.13982,-166.24133 -74.08333,14.81667 52.91666,141.8166592 z"
   id="path1-7-04" />
     </g>
     <g
   id="g2-1-2"
   transform="translate(6047.7691,301.34793)"
   inkscape:label="g2-1-2">
   <path
   style="fill:#c223bd;stroke:#000000;stroke-width:0;paint-order:fill markers stroke"
   d="m 464.41426,-235.73127 -110.06664,-65.61666 -2.11667,169.33331 162.98331,-33.86666 z"
   id="path17-7-1-9" />
     <path
   style="fill:#c223bd;stroke:#000000;stroke-width:0;paint-order:fill markers stroke"
   d="m 515.13982,-166.24133 -74.08333,14.81667 52.91666,141.8166592 z"
   id="path1-7-04-18" />
     </g>
     <g
   id="g2-2-1"
   transform="translate(-352.23095,-3298.6522)"
   inkscape:label="g2-2-1">
   <path
   style="fill:#c223bd;stroke:#000000;stroke-width:0;paint-order:fill markers stroke"
   d="m 464.41426,-235.73127 -110.06664,-65.61666 -2.11667,169.33331 162.98331,-33.86666 z"
   id="path17-7-1-0" />
     <path
   style="fill:#c223bd;stroke:#000000;stroke-width:0;paint-order:fill markers stroke"
   d="m 515.13982,-166.24133 -74.08333,14.81667 52.91666,141.8166592 z"
   id="path1-7-04-1" />
     </g>
     <g
   id="g3-1-1"
   transform="translate(-6863.9798,-42.212985)"
   inkscape:label="g3-1-1">
   <path
   style="fill:#c223bd;stroke:#000000;stroke-width:0;paint-order:fill markers stroke"
   d="M 670.52573,42.27102 463.97986,60.231532 532.82849,182.96169 Z"
   id="path2-9-46-0"
   inkscape:label="path2-9-46-0" />
     <path
   style="fill:#c223bd;stroke:#000000;stroke-width:0;paint-order:fill markers stroke"
   d="m 669.65165,42.212986 -137.94353,140.142284 123.5066,47.8857 z"
   id="path2-6-4-4-0"
   inkscape:label="path2-6-4-4-0" />
     </g>
     
   
   
   
   
   
   
   
     
     
     
     
     
     
     
     
     
     
     
   
     <g
   id="g48"><path
     id="path16"
     style="fill:#29bdd6;fill-opacity:0.498039;stroke:#738823;stroke-width:0.781"
     d="m 928.52937,-562.59357 2.43757,167.07094 166.53976,2.21485 -23.3862,-180.07273 z"
     sodipodi:nodetypes="ccccc" /><path
     id="path26"
     style="fill:#29bdd6;fill-opacity:0.498039;stroke:#738823;stroke-width:0.781"
     d="M 826.30409 -148.51445 L 740.12898 -158.26993 L 574.82745 -156.52378 L 579.50468 -7.4372721 L 611.07588 0.16329753 L 824.47371 -6.8528117 L 826.30409 -148.51445 z " /><path
     id="path27"
     style="fill:#29bdd6;fill-opacity:0.498039;stroke:#738823;stroke-width:0.781"
     d="M 827.80115 -233.04986 L 744.36438 -370.32882 L 740.86899 -158.27768 L 740.12898 -158.26993 L 826.30409 -148.51445 L 827.39704 -233.1129 L 827.80115 -233.04986 z " /><path
     id="path29"
     style="fill:#29bdd6;fill-opacity:0.498039;stroke:#738823;stroke-width:0.781"
     d="M 927.9599 -562.67108 L 744.37214 -370.79597 L 744.36438 -370.32882 L 827.80115 -233.04986 L 932.63455 -216.74284 L 930.29619 -395.64613 L 927.9599 -562.67108 z " /><path
     id="path30"
     style="fill:#29bdd6;fill-opacity:0.498039;stroke:#738823;stroke-width:0.781"
     d="M 520.06955 -728.96739 L 744.62483 -371.06004 L 927.9599 -562.67108 L 927.95731 -562.8566 L 911.58725 -748.776 L 520.06955 -728.96739 z " /><path
     id="path31"
     style="fill:#29bdd6;fill-opacity:0.498039;stroke:#738823;stroke-width:0.781"
     d="m 517.47487,-986.08193 -2.20865,150.81973 350.71813,-33.95244 -15.20114,-141.48546 z"
     sodipodi:nodetypes="ccccc" /><path
     id="path32"
     style="fill:#29bdd6;fill-opacity:0.498039;stroke:#738823;stroke-width:0.781"
     d="m 273.78277,-673.65397 244.69327,-55.34884 -3.28371,-106.30176 2.33887,-150.8404 -134.46931,5.84667 -140.3165,4.67723 z"
     sodipodi:nodetypes="ccccccc" /><path
     id="path34"
     style="fill:#29bdd6;fill-opacity:0.498039;stroke:#738823;stroke-width:0.781"
     d="m 299.1714,-429.5743 102.5866,59.32338 342.61879,-0.84012 -0.005,0.29507 0.2527,-0.26407 -224.55529,-357.90735 -1.36839,0.0693 -0.0858,0.0217 -244.83209,55.22247 z"
     sodipodi:nodetypes="cccccccccc" /><path
     id="path35"
     style="fill:#29bdd6;fill-opacity:0.498039;stroke:#738823;stroke-width:0.781"
     d="M 294.13812 -429.5836 L 295.21092 -182.13462 L 411.12478 -182.83277 L 401.77031 -369.92161 L 298.87168 -429.55621 L 294.13812 -429.5836 z " /><path
     id="path36"
     style="fill:#29bdd6;fill-opacity:0.498039;stroke:#738823;stroke-width:0.781"
     d="M 294.62491 -317.25609 L 217.10768 -316.91347 L 217.02035 -316.13368 L 217.02035 -181.66333 L 295.21092 -182.13462 L 294.62491 -317.25609 z " /><path
     id="path39"
     style="fill:#29bdd6;fill-opacity:0.498039;stroke:#738823;stroke-width:0.781"
     d="M 294.36756 -376.65143 L 222.89596 -368.73201 L 217.10768 -316.91347 L 294.62491 -317.25609 L 294.36756 -376.65143 z " /><path
     id="path38"
     style="fill:#29bdd6;fill-opacity:0.498039;stroke:#738823;stroke-width:0.781"
     d="M 219.78452 -430.01613 L 222.9745 -369.4374 L 222.89596 -368.73201 L 294.36756 -376.65143 L 294.13812 -429.5836 L 219.78452 -430.01613 z " /><path
     id="path37"
     style="fill:#29bdd6;fill-opacity:0.498039;stroke:#738823;stroke-width:0.781"
     d="M 54.75273 -371.08691 L -20.373433 -304.73644 L -20.348112 -304.44033 L 216.84671 -316.57137 L 222.79777 -368.45555 L 54.75273 -371.08691 z " /><path
     id="path40"
     style="fill:#29bdd6;fill-opacity:0.498039;stroke:#738823;stroke-width:0.781"
     d="M 54.748079 -371.08278 L -26.179797 -373.25164 L -20.373433 -304.73644 L 54.748079 -371.08278 z " /><path
     id="path41"
     style="fill:#29bdd6;fill-opacity:0.498039;stroke:#738823;stroke-width:0.781"
     d="M 54.13158 -449.82784 L -89.307727 -446.88848 L -78.813277 -373.4294 L -32.821252 -373.4294 L -26.194784 -373.4294 L -26.179797 -373.25164 L 54.748079 -371.08278 L 54.75273 -371.08691 L 54.487113 -371.09104 L 54.13158 -449.82784 z " /><path
     id="path42"
     style="fill:#29bdd6;fill-opacity:0.498039;stroke:#738823;stroke-width:0.781"
     d="m -150.096,-447.07659 -140.76015,-0.23254 -0.77049,117.14375 141.48542,-4.67723 z"
     sodipodi:nodetypes="ccccc" /><path
     id="path43"
     style="fill:#29bdd6;fill-opacity:0.498039;stroke:#738823;stroke-width:0.781"
     d="m -290.5404,-508.04496 -1.24541,-66.08175 -108.58613,-9.7777 1.16892,74.83574 z"
     sodipodi:nodetypes="ccccc" /><path
     id="path44"
     style="fill:#29bdd6;fill-opacity:0.498039;stroke:#738823;stroke-width:0.781"
     d="m -227.22282,-612.8706 -64.40382,38.32066 1.16892,66.65071 -0.39843,60.5901 140.71493,0.21342 h 60.804037 l 0.02946,0.20723 143.439307,-2.93936 -0.556039,-123.22814 z"
     sodipodi:nodetypes="cccccccccc" /><path
     id="path48"
     style="fill:#29bdd6;fill-opacity:0.498039;stroke:#738823;stroke-width:0.781"
     d="m -303.31999,-623.66064 11.60757,48.75568 64.4896,-37.96564 z"
     sodipodi:nodetypes="cccc" /><path
     id="path47"
     style="fill:#29bdd6;fill-opacity:0.498039;stroke:#738823;stroke-width:0.781"
     d="m -208.60639,-914.81703 6.23842,305.46633 255.943511,36.29472 -1.426786,-316.03652 -134.470345,-15.20114 z"
     sodipodi:nodetypes="cccccc" /><path
     id="path46"
     style="fill:#29bdd6;fill-opacity:0.498039;stroke:#738823;stroke-width:0.781"
     d="m 61.071208,-1003.7522 -146.900594,8.25276 1.135848,90.9252 136.656257,15.25901 z"
     sodipodi:nodetypes="ccccc" /><path
     id="path45"
     style="fill:#29bdd6;fill-opacity:0.498039;stroke:#738823;stroke-width:0.781"
     d="m 61.071208,-1003.7522 -8.890614,114.40234 53.756096,-0.91208 16.37006,-116.93036 z"
     sodipodi:nodetypes="ccccc" /><path
     id="path33"
     style="fill:#29bdd6;fill-opacity:0.498039;stroke:#738823;stroke-width:0.781"
     d="m 512.85448,-1052.7952 -127.45423,10.5239 -2.45515,61.7911 134.58662,-5.67665 z"
     sodipodi:nodetypes="ccccc" />
     </g>
     </g>
  
   </svg>
