<?xml version="1.0" encoding="UTF-8" standalone="no"?>
<!-- Created with Inkscape (http://www.inkscape.org/) -->

<svg
   width="800mm"
   height="600mm"
   viewBox="0 0 800 600"
   version="1.1"
   id="svg1"
   inkscape:export-filename="비트맵.svg"
   inkscape:export-xdpi="96"
   inkscape:export-ydpi="96"
   sodipodi:docname="shallowSea.svg"
   inkscape:version="1.3.2 (091e20e, 2023-11-25, custom)"
   xml:space="preserve"
   xmlns:inkscape="http://www.inkscape.org/namespaces/inkscape"
   xmlns:sodipodi="http://sodipodi.sourceforge.net/DTD/sodipodi-0.dtd"
   xmlns="http://www.w3.org/2000/svg"
   xmlns:svg="http://www.w3.org/2000/svg"><sodipodi:namedview
   id="namedview1"
   pagecolor="#ffffff"
   bordercolor="#000000"
   borderopacity="0.25"
   inkscape:showpageshadow="2"
   inkscape:pageopacity="0.0"
   inkscape:pagecheckerboard="0"
   inkscape:deskcolor="#d1d1d1"
   inkscape:document-units="mm"
   inkscape:zoom="0.02"
   inkscape:cx="-4400"
   inkscape:cy="10575"
   inkscape:window-width="2560"
   inkscape:window-height="1494"
   inkscape:window-x="-11"
   inkscape:window-y="1609"
   inkscape:window-maximized="1"
   inkscape:current-layer="g1" /><defs
   id="defs1" /><g
   inkscape:label="Layer 1"
   inkscape:groupmode="layer">  
   
   
     
     
     
     
     
     
     
   <rect
   style="fill:#28bed7;stroke:#738823;stroke-width:0.781"
   id="rect12"
   width="40"
   height="40"
   x="94.441223"
   y="-2858.6267"
   ry="13.727403"
   inkscape:label="ship" />
   <path
   style="fill:#28bed7;stroke:#738823;stroke-width:1.56818"
   d="m -37.636167,-1955.8745 3.3317,1575.15336 1219.395667,-9.9276 23.3218,-1575.15336 z"
   id="path14" />
   <path
   style="fill:#28bed7;stroke:#738823;stroke-width:1.16154"
   d="m 2131.7428,-2581.5758 2.9261,983.9761 1070.9152,-6.2016 20.482,-983.9762 z"
   id="path15" />
   <path
   style="fill:#28bed7;stroke:#738823;stroke-width:3.15233"
   d="m -6401.0179,-3863.9137 2.6781,7918.2937 980.1875,-49.9057 18.7467,-7918.294 z"
   id="path17" />
   <path
   style="fill:#28bed7;stroke:#738823;stroke-width:3.28092"
   d="m 5531.7541,-4036.2431 2.9254,7852.4332 1070.6856,-49.4907 20.4776,-7852.4335 z"
   id="path18" /> 
   <path
   style="fill:#28bed7;stroke:#738823;stroke-width:4.53747"
   d="m -6664.9972,2695.9567 35.8544,1225.4333 13122.4437,-7.7234 250.9754,-1225.4334 z"
   id="path19" />
   <g
   id="g2-2-2"
   transform="translate(-352.23095,3901.3479)"
   inkscape:label="g2-2-2">
   <path
   style="fill:#c223bd;stroke:#000000;stroke-width:0;paint-order:fill markers stroke"
   d="m 464.41426,-235.73127 -110.06664,-65.61666 -2.11667,169.33331 162.98331,-33.86666 z"
   id="path17-7-1" />
     <path
   style="fill:#c223bd;stroke:#000000;stroke-width:0;paint-order:fill markers stroke"
   d="m 515.13982,-166.24133 -74.08333,14.81667 52.91666,141.8166592 z"
   id="path1-7-04" />
     </g>
     <g
   id="g2-1-2"
   transform="translate(6047.7691,301.34793)"
   inkscape:label="g2-1-2">
   <path
   style="fill:#c223bd;stroke:#000000;stroke-width:0;paint-order:fill markers stroke"
   d="m 464.41426,-235.73127 -110.06664,-65.61666 -2.11667,169.33331 162.98331,-33.86666 z"
   id="path17-7-1-9" />
     <path
   style="fill:#c223bd;stroke:#000000;stroke-width:0;paint-order:fill markers stroke"
   d="m 515.13982,-166.24133 -74.08333,14.81667 52.91666,141.8166592 z"
   id="path1-7-04-18" />
     </g>
     <g
   id="g2-2-1"
   transform="translate(-352.23095,-3298.6522)"
   inkscape:label="g2-2-1">
   <path
   style="fill:#c223bd;stroke:#000000;stroke-width:0;paint-order:fill markers stroke"
   d="m 464.41426,-235.73127 -110.06664,-65.61666 -2.11667,169.33331 162.98331,-33.86666 z"
   id="path17-7-1-0" />
     <path
   style="fill:#c223bd;stroke:#000000;stroke-width:0;paint-order:fill markers stroke"
   d="m 515.13982,-166.24133 -74.08333,14.81667 52.91666,141.8166592 z"
   id="path1-7-04-1" />
     </g>
     <g
   id="g3-1-1"
   transform="translate(-6863.9798,-42.212985)"
   inkscape:label="g3-1-1">
   <path
   style="fill:#c223bd;stroke:#000000;stroke-width:0;paint-order:fill markers stroke"
   d="M 670.52573,42.27102 463.97986,60.231532 532.82849,182.96169 Z"
   id="path2-9-46-0"
   inkscape:label="path2-9-46-0" />
     <path
   style="fill:#c223bd;stroke:#000000;stroke-width:0;paint-order:fill markers stroke"
   d="m 669.65165,42.212986 -137.94353,140.142284 123.5066,47.8857 z"
   id="path2-6-4-4-0"
   inkscape:label="path2-6-4-4-0" />
     </g>
     <path
   style="fill:#28bed7;stroke:#738823;stroke-width:2.53581"
   d="m 4540.1453,-3179.96 2.9931,4584.6886 1095.4484,-28.8954 20.9512,-4584.689 z"
   id="path20" />
   <path
   style="fill:#28bed7;stroke:#738823;stroke-width:2.50888"
   d="m 3137.8308,1089.8601 6.7779,1981.7684 2480.7251,-12.4903 47.4457,-1981.7686 z"
   id="path21" />
   <path
   style="fill:#28bed7;stroke:#738823;stroke-width:2.50888"
   d="m -195.9192,1142.7768 6.7779,1981.7684 2480.7251,-12.4903 47.4457,-1981.7686 z"
   id="path22" />
   <path
   style="fill:#28bed7;stroke:#738823;stroke-width:2.50484"
   d="m -3212.1673,91.564454 4.3018,3112.360546 1574.4957,-19.6159 30.1134,-3112.360935 z"
   id="path23" />
   <path
   style="fill:#28bed7;stroke:#738823;stroke-width:1.12526"
   d="m -5752.8637,-1962.2437 4.4824,602.8057 1640.5892,-3.7992 31.3775,-602.8058 z"
   id="path24" />
   <path
   style="fill:#28bed7;stroke:#738823;stroke-width:1.84855"
   d="m -5818.642,-209.18105 4.4805,1627.51395 1639.8698,-10.2575 31.3638,-1627.51418 z"
   id="path25" />
   </g>
  
   </svg>
