<?xml version="1.0" encoding="UTF-8" standalone="no"?>
<!-- Created with Inkscape (http://www.inkscape.org/) -->

<svg
   width="800mm"
   height="600mm"
   viewBox="0 0 800 600"
   version="1.1"
   id="svg1"
   inkscape:export-filename="..\..\..\..\..\..\Desktop\zz.png"
   inkscape:export-xdpi="96"
   inkscape:export-ydpi="96"
   sodipodi:docname="TemporaryMap.svg"
   inkscape:version="1.3.2 (091e20e, 2023-11-25, custom)"
   xml:space="preserve"
   xmlns:inkscape="http://www.inkscape.org/namespaces/inkscape"
   xmlns:sodipodi="http://sodipodi.sourceforge.net/DTD/sodipodi-0.dtd"
   xmlns="http://www.w3.org/2000/svg"
   xmlns:svg="http://www.w3.org/2000/svg"><sodipodi:namedview
   id="namedview1"
   pagecolor="#ffffff"
   bordercolor="#000000"
   borderopacity="0.25"
   inkscape:showpageshadow="2"
   inkscape:pageopacity="0.0"
   inkscape:pagecheckerboard="0"
   inkscape:deskcolor="#d1d1d1"
   inkscape:document-units="mm"
   inkscape:zoom="0.088388348"
   inkscape:cx="2845.3977"
   inkscape:cy="4089.9056"
   inkscape:window-width="1920"
   inkscape:window-height="1129"
   inkscape:window-x="-8"
   inkscape:window-y="-8"
   inkscape:window-maximized="1"
   inkscape:current-layer="g1" /><defs
   id="defs1" /><g
   inkscape:label="Layer 1"
   inkscape:groupmode="layer"
   id="g1">
 
     
     <g
   id="g2"
   transform="translate(-3156.1227,925.47998)"><path
   style="fill:#d62969;fill-opacity:0.498039;stroke:#738823;stroke-width:0.781"
   d="m 3149.8249,-541.80877 419.0785,56.12659 -95.7895,148.17423 -169.8765,43.40456 -163.8895,-142.93572 z"
   id="path1" />
     </g>
     <g
   id="g3"
   transform="translate(-3156.1227,925.47998)"><path
   style="fill:#d62969;fill-opacity:0.498039;stroke:#738823;stroke-width:0.781"
   d="m 3113.1555,-796.24938 8.2319,77.08054 209.5392,136.20056 231.9901,14.21874 16.4637,-196.06892 -303.8319,-136.20057 z"
   id="path2" />
     </g>
     <g
   id="g4"
   transform="translate(-3156.1227,925.47998)"><path
   style="fill:#d62969;fill-opacity:0.498039;stroke:#738823;stroke-width:0.781"
   d="m 3360.1125,-555.27916 -3.7417,20.20557 185.592,21.70229 6.7349,-29.18584 z"
   id="path3" />
     </g>
     <g
   id="g5"
   transform="translate(-3156.1227,925.47998)"><path
   style="fill:#d62969;fill-opacity:0.498039;stroke:#738823;stroke-width:0.781"
   d="m 3645.984,-603.92222 -24.6957,117.49169 44.1528,108.51142 455.748,25.44406 -19.4572,-353.97175 z"
   id="path4" />
     </g>
     <g
   id="g6"
   transform="translate(-3156.1227,925.47998)"><path
   style="fill:#d62969;fill-opacity:0.498039;stroke:#738823;stroke-width:0.781"
   d="m 4129.4211,-708.69187 298.5934,-167.63146 186.3405,23.94736 35.9209,276.14287 -164.6381,143.6841 -299.3419,47.89471 z"
   id="path5" />
	 </g>
     <g
   id="g7"
   transform="translate(-3156.1227,925.47998)"><path
   style="fill:#d62969;fill-opacity:0.498039;stroke:#738823;stroke-width:0.781"
   d="m 2773.4024,-839.65393 143.6841,104.76966 -82.319,181.10181 -89.8025,5.98683 z"
   id="path6" />
	 </g>
     <g
   id="g8"
   transform="translate(-3156.1227,925.47998)"><path
   style="fill:#d62969;fill-opacity:0.498039;stroke:#738823;stroke-width:0.781"
   d="m 2752.4485,-496.9075 125.7236,8.98025 205.0492,214.02945 23.9472,149.67093 L 2848.238,1.4967093 2688.0899,-62.861792 Z"
   id="path7" />
	 </g>
     <g
   id="g9"
   transform="translate(-3156.1227,925.47998)"><path
   style="fill:#d62969;fill-opacity:0.498039;stroke:#738823;stroke-width:0.781"
   d="m 2770.4089,31.430896 118.2402,5.986838 -80.8223,657.055406 -49.3916,-2.99342 z"
   id="path8" />
	 </g>
     <g
   id="g10"
   transform="translate(-3156.1227,925.47998)"><path
   style="fill:#d62969;fill-opacity:0.498039;stroke:#738823;stroke-width:0.781"
   d="m 2909.603,722.91061 957.8938,311.31559 353.2235,456.4963 -622.631,228.9965 -883.0585,-377.1707 z"
   id="path9" />
	 </g>
     <g
   id="g11"
   transform="translate(-3156.1227,925.47998)"><path
   style="fill:#d62969;fill-opacity:0.498039;stroke:#738823;stroke-width:0.781"
   d="m 3952.8093,1089.6044 245.4603,291.8583 264.9175,-459.48975 -246.957,5.98683 z"
   id="path10" />
	 </g>
     <g
   id="g12"
   transform="translate(-3156.1227,925.47998)"><path
   style="fill:#d62969;fill-opacity:0.498039;stroke:#738823;stroke-width:0.781"
   d="m 4213.2369,1543.1073 -555.2792,203.5525 282.8779,335.2629 194.5722,13.4704 193.0757,-260.4275 z"
   id="path11" />
	 </g>
     <g
   id="g13"
   transform="translate(-3156.1227,925.47998)"><path
   style="fill:#d62969;fill-opacity:0.498039;stroke:#738823;stroke-width:0.781"
   d="m 3996.214,2430.656 -257.4341,598.6837 661.5454,-92.796 -176.6115,-508.8812 z"
   id="path12" />
	 </g>
     <g
   id="g14"
   transform="translate(-3156.1227,925.47998)"><path
   style="fill:#d62969;fill-opacity:0.498039;stroke:#738823;stroke-width:0.781"
   d="m 2822.7938,3421.4776 877.0718,-356.2168 1179.4069,2.9933 553.7824,53.8816 143.6841,1610.4592 -251.4473,374.1774 -2529.4386,191.5787 z"
   id="path13" />
	 </g>
     <g
   id="g15"
   transform="translate(-3156.1227,925.47998)"><path
   style="fill:#d62969;fill-opacity:0.498039;stroke:#738823;stroke-width:0.781"
   d="m 6127.5279,2403.7152 -610.6572,757.3349 176.6117,1370.9859 829.1769,-203.5527 437.039,-592.6969 38.9144,-535.8219 z"
   id="path14" />
	 </g>
     <g
   id="g16"
   transform="translate(-3156.1227,925.47998)"><path
   style="fill:#d62969;fill-opacity:0.498039;stroke:#738823;stroke-width:0.781"
   d="m 7064.468,3244.8658 -11.9737,-5.9867 -41.9079,514.8678 568.7497,-149.6708 z"
   id="path15" />
	 </g>
     <g
   id="g17"
   transform="translate(-3156.1227,925.47998)"><path
   style="fill:#d62969;fill-opacity:0.498039;stroke:#738823;stroke-width:0.781"
   d="m 8513.2827,2963.4844 -688.4863,326.2828 -41.9079,365.197 730.3942,559.7694 245.4603,-5.987 z"
   id="path16" />
	 </g>
     <g
   id="g18"
   transform="translate(-3156.1227,925.47998)"><path
   style="fill:#d62969;fill-opacity:0.498039;stroke:#738823;stroke-width:0.781"
   d="m 4897.2329,1293.1569 281.3815,71.842 83.8157,320.2958 -407.1051,164.6381 -230.4931,-221.5131 z"
   id="path17" />
	 </g>
     <g
   id="g19"
   transform="translate(-3156.1227,925.47998)"><path
   style="fill:#d62969;fill-opacity:0.498039;stroke:#738823;stroke-width:0.781"
   d="m 5633.6138,1924.7682 -110.7564,269.4077 149.6711,113.7499 278.3879,-14.9671 32.9274,-302.3353 z"
   id="path18" />
	 </g>
     <g
   id="g20"
   transform="translate(-3156.1227,925.47998)"><path
   style="fill:#d62969;fill-opacity:0.498039;stroke:#738823;stroke-width:0.781"
   d="m 7028.5472,2035.5247 -164.6381,197.5656 622.631,83.8158 167.6315,-107.7631 -203.5527,-164.6381 z"
   id="path19" />
	 </g>
     <g
   id="g21"
   transform="translate(-3156.1227,925.47998)"><path
   style="fill:#d62969;fill-opacity:0.498039;stroke:#738823;stroke-width:0.781"
   d="m 6390.949,883.05851 170.6247,865.09799 62.8618,8.9803 92.796,-703.4534 z"
   id="path20" />
	 </g>
     <g
   id="g22"
   transform="translate(-3156.1227,925.47998)"><path
   style="fill:#d62969;fill-opacity:0.498039;stroke:#738823;stroke-width:0.781"
   d="M 5594.6994,-706.4468 5265.4234,317.30238 4681.7068,35.921024 4909.2066,-667.53236 5340.2589,-808.22304 Z"
   id="path21" />
	 </g>
     <g
   id="g23"
   transform="translate(-3156.1227,925.47998)"><path
   style="fill:#d62969;fill-opacity:0.498039;stroke:#738823;stroke-width:0.781"
   d="M 5507.8904,-98.782816 5394.1405,392.13784 7579.3361,1299.1437 7824.7964,703.45339 Z"
   id="path22" />
	 </g>
     <g
   id="g24"
   transform="translate(-3156.1227,925.47998)"><path
   style="fill:#d62969;fill-opacity:0.498039;stroke:#738823;stroke-width:0.781"
   d="m 7872.691,769.3086 -263.4207,607.664 95.7894,344.2431 820.1967,520.8549 59.8684,-1864.89984 z"
   id="path23" />
	 </g>
     <g
   id="g25"
   transform="translate(-3156.1227,925.47998)"><path
   style="fill:#d62969;fill-opacity:0.498039;stroke:#738823;stroke-width:0.781"
   d="m 6612.4618,5073.8447 -781.2823,32.9276 -173.6182,215.5262 -5.9868,748.3546 407.1049,215.5261 1149.4727,-83.8157 29.9342,-907.006 z"
   id="path24" />
	 </g>
     <g
   id="g26"
   transform="translate(-3156.1227,925.47998)"><path
   style="fill:#d62969;fill-opacity:0.498039;stroke:#738823;stroke-width:0.781"
   d="m 7321.9021,5412.101 -32.9277,1041.7098 1146.4795,89.8025 149.6709,-990.8217 -589.7036,-227.4999 z"
   id="path25" />
	 </g>
     <g
   id="g27"
   transform="matrix(1,0,0,-1,-3156.1227,10496.133)"><path
   style="fill:#d62969;fill-opacity:0.498039;stroke:#738823;stroke-width:0.781"
   d="m 8603.0852,4352.4307 -254.4405,652.5654 254.4405,212.5327 z"
   id="path26" />
	 </g>
     </g>
     </svg>
